<?xml version="1.0" encoding="utf-8"?><svg width="238" height="198" viewBox="0 0 238 198" xmlns="http://www.w3.org/2000/svg" xmlns:xlink="http://www.w3.org/1999/xlink"><svg id="admin" viewBox="0 0 60 60" width="60" height="60" x="60" y="93.6" xmlns="http://www.w3.org/2000/svg"><style>.ast0{fill:#fbb87d}.ast1,.ast2{fill-rule:evenodd;clip-rule:evenodd;fill:#bdc3c7}.ast2{fill:#ffa016}.ast3{fill:none}.ast4{fill:#bdc3c7}.ast5{fill:#e25162}.ast6{fill:#39517a}.ast7{fill:#5065a1}.ast8{fill:#394c81}.ast9{fill:#f0f1f1}.ast10{fill:#e3b794}.ast11{fill:#f1cdb0}.ast12{fill:#919090}.ast13{fill:#79302a}</style><path class="ast0" d="M32.5 26c0 .1 0 .1 0 0 0 .1 0 .1 0 0z"/><path class="ast1" d="M17.3 52.3c1.1-.1 2.3 0 3.4 0H42c.3 0 .7-.1.9.2.3.3 0 .9-.4.8H17.6c-.1 0-.3 0-.4-.1-.3-.3-.3-.8.1-.9z"/><path class="ast2" d="M28.8 51.5h2.4H28.8z"/><path class="ast3" d="M33.1 30.1c.5-.9 1-1.7 1.5-2.6-.5.8-1 1.7-1.5 2.6zM27.9 32.1c.2.4.4.7.6 1.1-.2-.4-.4-.8-.6-1.1zM31.5 33.1c.2-.3.4-.7.6-1.1-.2.4-.4.8-.6 1.1z"/><path class="ast4" d="M31.5 33.1c.2-.3.4-.7.6-1.1.4-.7.7-1.3 1.1-2 0 0 0 .1-.1.1l-.9.6-.2-.2-.9.9.4 1.7zM30.8 29.2l-.8-.8-.8.8h1.6zM27.9 32.1c.2.3.4.7.6 1.1l.3-1.7-.8-.9-.2.2-.8-.6c.3.6.6 1.1.9 1.7v.2zM31.3 27.5l-1.3.9zM28.7 27.5l1.3.9z"/><path class="ast5" d="M31.5 33.1l-.3-1.6.9-.9c-.3-.3-.8-.8-1.2-1.3H29.2c-.4.5-1 1-1.3 1.3l.9.9-.3 1.7c0 .1.1.1.1.2.1.2.2.5.4.7h2c.1-.2.2-.5.4-.7 0-.1 0-.2.1-.3z"/><path class="ast6" d="M32 34.1h11.9c-.1-1.1-.3-2.2-1.1-3-2.2-2-5.1-2.6-7.9-3.4-.1 0-.3-.1-.4-.2l2.3 1.8-4.8 4.8z"/><path class="ast7" d="M32.1 32.1c-.2.4-.4.7-.6 1.1 0 .1-.1.1-.1.2-.1.2-.2.5-.4.7h1l4.9-4.7-2.3-1.8c-.5.9-1 1.7-1.5 2.6-.3.5-.7 1.2-1 1.9z"/><path class="ast8" d="M23.1 29.3l2.3-1.8c-.1.1-.3.1-.4.2-2.7.9-5.7 1.4-7.9 3.4-.7.8-1 1.9-1.1 3h11.9l-4.8-4.8z"/><path class="ast7" d="M28 34.1h1c-.1-.2-.2-.5-.4-.7 0-.1-.1-.1-.1-.2-.2-.4-.4-.7-.6-1.1 0-.1-.1-.1-.1-.2-.8-1.5-1.6-3-2.5-4.4L23 29.3l5 4.8z"/><path class="ast4" d="M47.3 34.8c-.2-.5-.7-.8-1.2-.8H14.7c-.3 0-.6 0-.9.1-.4.1-.8.4-1 .7-.2.3-.1.7-.1 1.1 1.1 4.7 2.2 9.5 3.3 14.2.1.4.1.9.5 1.1.4.3.9.2 1.3.2h25.1c.7 0 1.3-.6 1.4-1.2 1-4.7 2.1-9.4 3.2-14.1 0-.3 0-.8-.2-1.3z"/><path class="ast9" d="M30.8 29.2c.4.5 1 1 1.2 1.3l.2.2.9-.6s0-.1.1-.1c.5-.9 1-1.7 1.5-2.6l-1.4-1.3-1.9 1.3-1.4 1 .8.8z"/><path class="ast9" d="M28 30.6l1.3-1.3.8-.8-1.3-.9-1.9-1.3-1.4 1.3 1.5 2.7.8.6c0-.2.1-.2.2-.3z"/><path class="ast10" d="M31.3 27.5l1.3-.9c0-.1-.1-.5-.2-.6-1.6.7-3.3.8-5 0-.1.2-.1.5-.2.6l1.3.9 1.3.9 1.5-.9z"/><path class="ast11" d="M32.5 25.9c2.1-.9 3.9-3 4.8-6 .9-.9 1.5-2.3 1.2-3.6-.1-.4-.6-.2-.9-.1 0-2.2.3-4.7-1-6.7C35.3 7.6 33.1 7 31 6.8h-2c-2 .2-4.2.8-5.4 2.6-1.4 2-1.1 4.5-1.1 6.8-.3-.1-.7-.3-.9.1-.3 1.1.1 2.4.9 3.3.4.4.6 1 .8 1.5 1.1 2.5 2.6 4.1 4.3 4.9 1.5.7 3.3.6 4.9-.1z"/><g><path class="ast12" d="M26.7 43.8h-.5l-.2-.5h-.9l-.1.5h-.5l.8-2.1h.5l.9 2.1zm-.8-.8l-.3-.8-.2.8h.5zM27.1 41.7H28.3c.1 0 .2.1.3.2.1.1.2.2.2.3 0 .1.1.3.1.5s0 .3-.1.5-.1.3-.2.4c-.1.1-.2.1-.3.2H27.1v-2.1zm.4.3v1.4h.6c.1 0 .1 0 .2-.1 0 0 .1-.1.1-.2v-.4-.4c0-.1-.1-.2-.1-.2-.1 0-.1-.1-.2-.1H27.5zM29.3 43.8v-2.1h.6l.4 1.5.4-1.5h.7v2.1H31v-1.7l-.4 1.7h-.4l-.4-1.7v1.7h-.5zM32.3 43.8v-2.1h.4v2.1h-.4zM33.1 43.8v-2.1h.4l.9 1.4v-1.4h.4v2.1h-.4l-.9-1.4v1.4h-.4z"/></g><g><path class="ast13" d="M36.5 9.5c1.3 2 1 4.4 1 6.7-.4.4-.7.9-.9 1.4-.1-.5-.1-.9-.3-1.3-2.1-.1-4.4-.2-6.3-1.3-1.2-.8-2.2-2-3.1-3.1-2.4.6-3.8 3.2-3.6 5.6-.3-.5-.6-.9-1-1.2 0-2.3-.3-4.8 1.1-6.8 2.6-3.7 10.9-3.6 13.1 0z"/></g></svg><svg id="ae" viewBox="0 0 32 16" width="32" height="16" x="133.3" y="60" xmlns="http://www.w3.org/2000/svg"><style>.bst0{fill:#00732f}.bst1{fill:#fff}.bst2{fill:red}</style><path class="bst0" d="M0 0h32v5.3H0V0z"/><path class="bst1" d="M0 5.3h32v5.3H0V5.3z"/><path d="M0 10.7h32V16H0v-5.3z"/><path class="bst2" d="M0 0h11v16H0V0z"/></svg><svg id="au" viewBox="0 0 32 16" width="32" height="16" x="73.3" y="76" xmlns="http://www.w3.org/2000/svg"><style>.cst0{fill:#006}.cst1{fill:#fff}.cst2{fill:#c00}</style><path class="cst0" d="M0 0h32v16H0V0z"/><path class="cst1" d="M0 0v.9l10.2 7.4h1.3v-.9L1.3 0H0zm11.5 0v.9L1.3 8.3H0v-.9L10.2 0h1.3z"/><path class="cst1" d="M4.8 0v8.3h1.9V0H4.8zM0 2.8v2.8h11.5V2.8H0z"/><path class="cst2" d="M0 3.3V5h11.5V3.3H0zM5.2 0v8.3h1.2V0H5.2zM0 8.3l3.8-2.8h.9L.9 8.3H0zM0 0l3.8 2.8H3L0 .6V0zm6.8 2.8L10.7 0h.9L7.7 2.8h-.9zm4.7 5.5L7.7 5.6h.9l3 2.2-.1.5z"/><path class="cst1" d="M16.2 12.4l-1.9.2.3 1.8-1.3-1.3-1.3 1.3.3-1.8-1.9-.2 1.6-1-1-1.6 1.7.7.6-1.8.6 1.8 1.7-.7-1 1.6m9.6 2.7l-.4-.7.8.3.2-.8.2.8.8-.3-.4.7.7.4-.8.1.1.8-.6-.6-.6.6.1-.8-.8-.1m.7-12.3l-.4-.7.8.3.1-.8.3.8.8-.3-.4.7.6.4-.8.1.1.8-.6-.6-.6.6.1-.8-.8-.1M19.7 7l-.4-.7.7.3.2-.8.2.8.8-.3-.4.7.7.4-.8.1.1.8-.6-.6-.6.6.1-.8-.7-.1m9.2-1.6l-.4-.7.8.3.2-.8.2.8.8-.3-.4.7.6.4-.8.1.1.8-.6-.6-.6.6.1-.8-.8-.1m-.9 3.2l-.4.3.1-.5-.4-.3h.5l.2-.5.2.5h.5l-.4.3.2.4"/></svg><svg id="banking" viewBox="0 0 60 60" width="60" height="60" x="133.3" xmlns="http://www.w3.org/2000/svg"><style>.dst0{fill:#8a8c8b}.dst1{fill:#b9b9ba}.dst2{fill:#e7e7e7}.dst3{fill:#d3d2d2}.dst4,.dst5,.dst6{fill-rule:evenodd;clip-rule:evenodd;fill:#a3a4a6}.dst5,.dst6{fill:#ccced0}.dst6{fill:#babbbc}.dst10,.dst11,.dst12,.dst13,.dst7,.dst8,.dst9{fill-rule:evenodd;clip-rule:evenodd;fill:#a5a7a9}.dst10,.dst11,.dst12,.dst13,.dst8,.dst9{fill:#929293}.dst10,.dst11,.dst12,.dst13,.dst9{fill:#f1f0f2}.dst10,.dst11,.dst12,.dst13{fill:#d6d7d7}.dst11,.dst12,.dst13{fill:#d95459}.dst12,.dst13{fill:#8a8c8b}.dst13{fill:#ffcd02}</style><path class="dst0" d="M47.3 9.2h-3.9c1.3 0 2.4 1 2.4 2.4v36.9c0 1.3-1 2.4-2.4 2.4h3.9c1.5 0 2.7-1.1 2.7-2.4v-37c-.1-1.3-1.2-2.3-2.7-2.3z"/><path class="dst1" d="M45.7 48.5v-37c0-1.3-1-2.4-2.4-2.4H12.4c-1.3 0-2.4 1-2.4 2.4v36.9c0 1.3 1 2.4 2.4 2.4h31c1.3 0 2.3-1 2.3-2.3z"/><path class="dst2" d="M41.4 11.9H14.5c-1.1 0-2 .9-2 2V46c0 1.1.9 2.1 2 2.1h26.9c1.1 0 2-.9 2-2.1V14c0-1.1-.9-2.1-2-2.1z"/><path class="dst3" d="M41.4 11.3H14.5c-1.5 0-2.7 1.2-2.7 2.7v32c0 1.5 1.2 2.7 2.7 2.7h26.9c1.5 0 2.7-1.2 2.7-2.7V14c-.1-1.5-1.3-2.7-2.7-2.7zm2 34.7c0 1.1-.9 2.1-2 2.1H14.5c-1.1 0-2-.9-2-2.1V14c0-1.1.9-2 2-2h26.9c1.1 0 2 .9 2 2v32z"/><path class="dst4" d="M43.4 50.8h-6.7l-2.2-2.1h6.9c1.5 0 2.7-1.2 2.7-2.7V32.7l1.7 1.5V49.2 49v1.3h-.1V50.6h-.1v.1h-.1v.1h-.1v.1h-.1-.2-.1l-.1.1H44.6h-.1-.2-.1-.2-.2-.2H43.3h-.1-.1l.3-.2z"/><path class="dst5" d="M41.4 48.1h-7.6L22 37.2l12.5-13 8.9 7.9V46c0 1.2-.9 2.1-2 2.1z"/><path class="dst6" d="M41.4 48.7h-6.9l-.7-.6h7.6c1.1 0 2-.9 2-2.1V32.2l.6.6V46c0 1.5-1.2 2.7-2.6 2.7z"/><path class="dst7" d="M44.3 16.8c0 .4-.3.7-.7.7H40c-.4 0-.7-.3-.7-.7s.3-.7.7-.7h3.6c.3 0 .7.4.7.7zM44.3 19c0 .4-.3.7-.7.7H40c-.4 0-.7-.3-.7-.7s.3-.7.7-.7h3.6c.3 0 .7.3.7.7zM44.3 41.8c0 .4-.3.7-.7.7H40c-.4 0-.7-.3-.7-.7s.3-.7.7-.7h3.6c.3 0 .7.3.7.7zM44.3 43.9c0 .4-.3.7-.7.7H40c-.4 0-.7-.3-.7-.7s.3-.7.7-.7h3.6c.3 0 .7.3.7.7z"/><path class="dst8" d="M34.3 35.4l-5-5 5-5c.4-.4.5-1.1.1-1.5-.4-.4-1-.3-1.5.1l-5 5-5-5c-.4-.4-1.1-.5-1.5-.1-.4.4-.3 1 .1 1.5l5 5-5 5c-.4.4-.5 1.1-.1 1.5.4.4 1 .3 1.5-.1l5-5 5 5c.4.4 1.1.5 1.5.1.4-.4.3-1-.1-1.5z"/><path class="dst9" d="M30.6 33.1c-1.5 1.5-3.9 1.5-5.3 0-1.5-1.5-1.5-3.9 0-5.3 1.4-1.5 3.9-1.5 5.3 0 1.4 1.4 1.5 3.8 0 5.3z"/><path class="dst10" d="M29.1 31.6c-.7.7-1.7.7-2.4 0-.6-.7-.7-1.7 0-2.4s1.7-.7 2.3 0 .7 1.8.1 2.4z"/><path class="dst11" d="M30 30.5c0 1.1-1 2-2.1 2s-2-1-2-2.1.9-2 2.1-2c1.1 0 2 .9 2 2.1z"/><path class="dst12" d="M30 18.3c0 1.1-.9 2-2.1 2-1.1 0-2-.9-2-2s.9-2 2-2c1.1-.1 2.1.8 2.1 2z"/><path class="dst13" d="M28.9 18.3c0 .6-.5 1-1 1s-1-.5-1-1 .5-1 1-1c.6 0 1 .4 1 1z"/></svg><svg id="dashboard" viewBox="0 0 44 44" width="44" height="44" x="193.3" y="88" xmlns="http://www.w3.org/2000/svg"><style>.est0{fill:#ee7b5f}.est1{clip-path:url(#eEllipse_1_copy_2_);fill:#fff}.est2{fill:#31b978}.est3{fill:#fff}.est4{fill:#55a8fd}.est5{fill:#fab12d}</style><circle id="eEllipse_1_copy_1_" class="est0" cx="132" cy="22" r="22"/><defs><circle id="eEllipse_1_copy" cx="132" cy="22" r="22"/></defs><clipPath id="eEllipse_1_copy_2_"><use xlink:href="#eEllipse_1_copy" overflow="visible"/></clipPath><path class="est1" d="M132.5 13c4.4-.1 7.9 3.4 8 7.8.1 4.4-3.4 7.9-7.8 8-4.4.1-7.9-3.4-8-7.8v-.1c0-4.3 3.5-7.9 7.8-7.9zM148 42.6c-6.9 8.6-19.4 9.9-27.9 3.1-1.1-.9-2.2-1.9-3.1-3.1 3.2-8.6 12.7-12.9 21.3-9.7 4.5 1.6 8 5.2 9.7 9.7z"/><g><circle id="eEllipse_1_copy_4" class="est2" cx="132" cy="107" r="22"/><path class="est3" d="M132 121l-1.8-1.8c-6.8-6-11.2-10-11.2-15-.1-3.9 3-7.1 6.9-7.2h.2c2.3 0 4.4 1 5.9 2.7 1.5-1.7 3.6-2.7 5.9-2.7 3.9-.1 7.1 3.1 7.2 7v.2c0 5-4.4 9-11.2 15L132 121z"/></g><g><circle id="eEllipse_1_copy_3" class="est4" cx="22" cy="107" r="22"/><path class="est3" d="M12.1 97.1c2.6-2.6 6.2-4.1 9.9-4.1 2.6 0 5.2.7 7.4 2.1.1.1.3.2.4.3l.1.1.1.1.1.1h.1l.2.1.1.1h.1l.1.1.1.1h.1l.1.1.1.1h.1l.1.1-2.7 2.7-5.3 5.3 5.6 5.6c-.4.8-1 1.5-1.6 2.2l-.3.3-5.9-5.9-5.3 5.3c-.8-.8-1.4-1.6-1.9-2.6L26 97.1l1 .9-.3-.2c-5-2.5-11.1-.6-13.7 4.5s-.6 11.1 4.5 13.7 11.1.6 13.7-4.5c1.5-2.9 1.5-6.3 0-9.2l2.8-2.8c1.4 2.2 2.1 4.8 2.1 7.4 0 7.7-6.3 14-14 14s-14-6.3-14-14c-.1-3.6 1.4-7.2 4-9.8z"/></g><g><circle id="eEllipse_1_copy_2" class="est5" cx="22" cy="22" r="22"/><path class="est3" d="M14 10.8c5.9-4.3 14.1-3.5 19.1 1.9 2.3 2.5 3.7 5.8 3.9 9.2v1.5c-.2 3.2-1.4 6.2-3.4 8.6-3.2-.9-6.5-1.3-9.8-1.4-4.2-.1-8.4.3-12.4 1.4-2-2.4-3.2-5.3-3.4-8.4v-1.9c.3-4.4 2.5-8.4 6-10.9zm8.2 9.2c-.7.1-1.3.4-1.9.7-1.9 1.2-2.4 3.7-1.1 5.6 1.2 1.9 3.7 2.4 5.6 1.1 1.3-.8 1.9-2.3 1.8-3.8l3.9-9-.3-.3c-2.8 1.9-5.4 3.8-8 5.7zm-.4 2.3c1-.4 2 .1 2.4 1.1s-.1 2-1.1 2.4c-1 .4-2-.1-2.4-1.1-.1-.3-.1-.5-.1-.8.1-.7.6-1.3 1.2-1.6z"/></g></svg><svg id="edu" viewBox="0 0 44 44" width="44" height="44" x="193.3" y="44" xmlns="http://www.w3.org/2000/svg"><style>.fst0{fill:#ee7b5f}.fst1{clip-path:url(#fEllipse_1_copy_2_);fill:#fff}.fst2{fill:#31b978}.fst3{fill:#fff}.fst4{fill:#55a8fd}.fst5{fill:#fab12d}</style><circle id="fEllipse_1_copy_1_" class="fst0" cx="132" cy="-63" r="22"/><defs><circle id="fEllipse_1_copy" cx="132" cy="-63" r="22"/></defs><clipPath id="fEllipse_1_copy_2_"><use xlink:href="#fEllipse_1_copy" overflow="visible"/></clipPath><path class="fst1" d="M132.5-72c4.4-.1 7.9 3.4 8 7.8.1 4.4-3.4 7.9-7.8 8-4.4.1-7.9-3.4-8-7.8v-.1c0-4.3 3.5-7.9 7.8-7.9zM148-42.4c-6.9 8.6-19.4 9.9-27.9 3.1-1.1-.9-2.2-1.9-3.1-3.1 3.2-8.6 12.7-12.9 21.3-9.7 4.5 1.6 8 5.2 9.7 9.7z"/><g><circle id="fEllipse_1_copy_4" class="fst2" cx="132" cy="22" r="22"/><path class="fst3" d="M132 36l-1.8-1.8c-6.8-6-11.2-10-11.2-15-.1-3.9 3-7.1 6.9-7.2h.2c2.3 0 4.4 1 5.9 2.7 1.5-1.7 3.6-2.7 5.9-2.7 3.9-.1 7.1 3.1 7.2 7v.2c0 5-4.4 9-11.2 15L132 36z"/></g><g><circle id="fEllipse_1_copy_3" class="fst4" cx="22" cy="22" r="22"/><path class="fst3" d="M12.1 12.1C14.7 9.5 18.3 8 22 8c2.6 0 5.2.7 7.4 2.1.1.1.3.2.4.3l.1.1.1.1.1.1h.1l.2.1.1.1h.1l.1.1.1.1h.1l.1.1.1.1h.1l.1.1-2.7 2.7-5.3 5.3 5.6 5.6c-.4.8-1 1.5-1.6 2.2l-.3.3-5.9-5.9-5.3 5.3c-.8-.8-1.4-1.6-1.9-2.6L26 12.1l1 .9-.3-.2c-5-2.5-11.1-.6-13.7 4.5s-.6 11.2 4.4 13.7 11.1.6 13.7-4.5c1.5-2.9 1.5-6.3 0-9.2l2.8-2.8c1.4 2.2 2.1 4.8 2.1 7.4 0 7.7-6.3 14-14 14s-14-6.3-14-14c0-3.6 1.5-7.2 4.1-9.8z"/></g><g><circle id="fEllipse_1_copy_2" class="fst5" cx="22" cy="-63" r="22"/><path class="fst3" d="M14-74.2c5.9-4.3 14.1-3.5 19.1 1.9 2.3 2.5 3.7 5.8 3.9 9.2v1.5c-.2 3.2-1.4 6.2-3.4 8.6-3.2-.9-6.5-1.3-9.8-1.4-4.2-.1-8.4.3-12.4 1.4-2-2.4-3.2-5.3-3.4-8.4v-1.9c.3-4.4 2.5-8.4 6-10.9zm8.2 9.2c-.7.1-1.3.4-1.9.7-1.9 1.2-2.4 3.7-1.1 5.6 1.2 1.9 3.7 2.4 5.6 1.1 1.3-.8 1.9-2.3 1.8-3.8l3.9-9-.3-.3c-2.8 1.9-5.4 3.8-8 5.7zm-.4 2.3c1-.4 2 .1 2.4 1.1s-.1 2-1.1 2.4c-1 .4-2-.1-2.4-1.1-.1-.3-.1-.5-.1-.8.1-.7.6-1.3 1.2-1.6z"/></g></svg><svg id="gklogo" viewBox="0 0 73.3 27.6" width="73.3" height="27.6" xmlns="http://www.w3.org/2000/svg"><style>.gst0{fill:#fff}</style><path class="gst0" d="M1.2 4.5h4.9v12.3h2.6V4.5h5V2.3H1.2zM56.5 14.6h-8.1V2.3H46v6.1c-1.4-2.2-3.9-3.7-6.8-3.7-3.6 0-6.6 2.3-7.7 5.5-.5-.6-1.1-1.1-1.8-1.4.5-.7.8-1.5.8-2.5 0-2.3-1.8-4.1-4.1-4.1H18.8v14.5h9.5c1.3 0 2.5-.6 3.3-1.6 1 3.3 4.1 5.7 7.7 5.7 3 0 5.6-1.6 7-4.1h10.2v-2.1zm-28-8.2c0 1.1-.9 2-2 2h-5.4v-4h5.4c1.1 0 2 .9 2 2zm-.2 8.3h-7.2v-4h7.2c1.1 0 2 .9 2 2s-.9 2-2 2zm10.9 3.7c-3.1 0-5.6-2.5-5.6-5.6s2.5-5.6 5.6-5.6c3.1 0 5.6 2.5 5.6 5.6 0 3.1-2.5 5.6-5.6 5.6zM60.2 16.8h8.1v-2.2h-8.1V2.3h-2.3v14.5h1zM69.8 16.8h2.3V2.3h-2.3zM15.2 16.8h2.3V2.3h-2.3zM65.2 24.4c-.2.3-.5.4-1.3.4-.6 0-.9 0-1.1-.1-.2-.1-.3-.4-.3-.9v-2h1c.9 0 1 0 1.1.8h.3v-2h-.3c-.1.7-.2.8-1.1.8h-1V19c0-.3 0-.3.3-.3h.9c.8 0 1 .1 1.2.3.1.2.2.4.3.9h.3c0-.6-.1-1.3-.1-1.6h-4.7v.3c.8.1.9.1.9 1v4.2c0 .9-.1.9-1.1 1v.3h5.1c.1-.3.3-1.4.4-1.7h-.4c0 .5-.3.8-.4 1zM71.8 18c-.2.2-.2.3-.5.3h-4.2c-.3 0-.4 0-.6-.3h-.2c0 .6-.1 1.3-.1 1.9h.3c.1-.5.2-.8.3-.9.1-.2.4-.3 1.2-.3h.7v5.2c0 .8-.1.9-1.1 1v.3h3v-.3c-1-.1-1.1-.2-1.1-1v-5.2h.8c.8 0 .9.1 1.1.3.1.2.2.4.3.9h.4c-.1-.6-.1-1.3-.1-1.8l-.2-.1zM57.8 18.6c.7 0 1 .2 1.1.6 0 .3.1.8.1 1.8v2.7l-4.4-5.4H53v.3c.5 0 .8.1 1 .4.2.3.2.3.2 1v2.3c0 1 0 1.5-.1 1.8-.1.5-.3.7-.9.7v.3h2.6v-.3c-.7 0-1-.2-1-.7v-4.4l4.4 5.5h.3V21v-1.8c.1-.4.3-.6.9-.6v-.3h-2.6v.3zM51.9 24.1c-.3 0-.6.3-.6.6 0 .4.3.6.6.6s.6-.2.6-.6c0-.4-.2-.6-.6-.6z"/></svg><svg id="ie" viewBox="0 0 32 16" width="32" height="16" x="193.3" y="132" xmlns="http://www.w3.org/2000/svg"><style>.hst0{fill:#fff}.hst1{fill:#009a49}.hst2{fill:#ff7900}</style><path class="hst0" d="M0 0h32v16H0V0z"/><path class="hst1" d="M0 0h10.7v16H0V0z"/><path class="hst2" d="M21.3 0H32v16H21.3V0z"/></svg><svg id="inventory" viewBox="0 0 60 60" width="60" height="60" x="73.3" xmlns="http://www.w3.org/2000/svg"><style>.ist0{fill:#ecf0f1}.ist1{fill:#bdc3c7}.ist2{fill:#d95459}.ist3{fill:#99abd5}.ist4{fill:#b8c9f1}.ist5,.ist6{fill-rule:evenodd;clip-rule:evenodd;fill:#7f8c8d}.ist6{fill:#95a5a6}.ist7{fill:#b88a4e}.ist10,.ist11,.ist12,.ist8,.ist9{fill-rule:evenodd;clip-rule:evenodd;fill:#dab07e}.ist10,.ist11,.ist12,.ist9{fill:#e1b785}.ist10,.ist11,.ist12{fill:#b88a4e}.ist11,.ist12{fill:#b07f45}.ist12{fill:#fefefe}.ist13{fill:#808184}.ist14{fill:#47464e}</style><path class="ist0" d="M42.4 20.5c-3.9-2-7.9-3.9-11.8-5.9-.3-.1-.5-.4-.8-.2l-14.4 7.2c-1.6.9-3.2 1.6-4.8 2.5v26.8h38.7V24.1c-.6-.4-1.3-.7-1.9-1-1.7-.8-3.3-1.7-5-2.6zm-7.6 4.9h-9.6V19h9.6v6.4z"/><path class="ist1" d="M30 13c-.3.1-.5.2-.7.3l-18.6 9.3v1.5c1.6-.9 3.2-1.6 4.8-2.5l14.4-7.2c.3-.2.5.1.8.2 3.9 2 7.9 3.9 11.8 5.9 1.7.8 3.3 1.7 5 2.6.7.3 1.3.6 1.9 1v-1.5l-18.6-9.3c-.3-.1-.6-.2-.8-.3z"/><path class="ist2" d="M34.9 11.6c-1.6-.8-3.3-1.7-4.9-2.5-.2.1-.3.1-.5.2-6.9 3.5-13.8 6.9-20.7 10.4-.1.4 0 .7 0 1.1v2.7c.6-.3 1.2-.6 1.9-.9l18.6-9.3c.2-.1.5-.3.7-.3.2.1.5.2.7.3l18.6 9.3c.7.3 1.2.7 1.9.9v-3.8c-5.4-2.7-10.8-5.4-16.3-8.1z"/><path class="ist3" d="M25.2 19h9.6v6.4h-9.6z"/><path class="ist4" d="M10.7 46.1h38.7v4.7H10.7z"/><path class="ist5" d="M45.4 48.5H14.6v-2.4h30.9v2.4zm0-14.2H14.6V32h30.9v2.3zm-30.8 4.8h30.9v-2.4H14.6v2.4zm30.8 4.7H14.6v-2.4h30.9v2.4z"/><path class="ist6" d="M45.4 48.5H14.6v2.4h30.9v-2.4zm0-18.9H14.6V32h30.9v-2.4zm-30.8 4.7h30.9v2.4H14.6v-2.4zm30.8 4.8H14.6v2.4h30.9v-2.4zm0 4.7H14.6v2.4h30.9v-2.4z"/><path class="ist7" d="M24.7 34.3h10.7V43H24.7v-8.7z"/><path class="ist8" d="M20.3 42.2h9.2v8.7h-9.2z"/><path class="ist9" d="M20.3 42.2h9.2c-.8 6.1-3.9 8.8-9.2 8.7v-8.7z"/><path class="ist10" d="M29.4 42.2h1.5v8.7h-1.5z"/><path class="ist11" d="M30 42.2h.3v1.9H30z"/><path class="ist12" d="M26.9 43.1h1.9v1.7h-1.9z"/><path class="ist13" d="M27.1 43.6h1.4v.1h-1.4v-.1zm0 .6h.7v.1h-.7v-.1zm0-.3h1.4v.1h-1.4v-.1z"/><path class="ist12" d="M26.1 49.1h2.7v.8h-2.7z"/><path class="ist13" d="M26.3 49.3h.3v.5h-.3zM26.8 49.3h.6v.5h-.6zM27.6 49.3h1v.1h-1zM27.6 49.6h.6v.1h-.6z"/><path class="ist14" d="M21.2 43.1c.2.1.3.2.3.5 0 0 0-.1-.1-.1h-.1v.1c0-.1-.1-.1-.1-.1v.5h-.1v-.1-.5c-.1 0-.1.1-.1.1s0-.1-.1-.1h-.1v.1l.4-.4zM21.7 43.4c-.1-.1-.1-.1-.1-.2h.5c0 .1 0 .2-.1.3-.1.1-.1.1-.2.1v.3h.1v.1h-.2v-.1h.1v-.3s0-.1-.1-.2zM22.3 43.9h.5v.1c-.1 0-.3 0-.5-.1 0 .1 0 0 0 0zM22.5 43.2c0 .1.1.2.1.3h-.2c0-.2 0-.3.1-.3zM22.4 43.5h.1v.4h-.1v-.4zM22.7 43.2c0 .1.1.2.1.3h-.2c.1-.2.1-.3.1-.3zM22.7 43.5h.1v.4h-.1v-.4z"/><path class="ist10" d="M28.4 49.8l-.2-.5v.1m0-.1l-.1-.2m-2.3-6.9h5v8.7h-2.2l-.3-.9v-.1l-.1-.4-.1-.1-.1-.2.1-.2-1.6-4.8-.1-.1-.6-1.9z"/><path class="ist8" d="M24.7 33.4h9.2v8.7h-9.2z"/><path class="ist9" d="M24.7 33.4h9.2c-.8 6.1-3.9 8.8-9.2 8.7v-8.7z"/><path class="ist10" d="M33.9 33.4h1.5v8.7h-1.5z"/><path class="ist11" d="M34.5 33.4h.3v1.9h-.3z"/><path class="ist12" d="M31.3 34.3h1.9V36h-1.9z"/><path class="ist13" d="M31.6 34.8H33v.1h-1.4v-.1zm0 .7h.7v.1h-.7v-.1zm0-.4H33v.1h-1.4v-.1z"/><path class="ist12" d="M30.5 40.4h2.7v.8h-2.7z"/><path class="ist13" d="M30.8 40.5h.3v.5h-.3zM31.2 40.5h.6v.5h-.6zM32 40.5h1v.1h-1zM32 40.8h.6v.1H32z"/><path class="ist14" d="M25.7 34.3c.2.1.3.2.3.5v-.1c-.1-.1-.1 0-.2 0v.1c0-.1-.1-.1-.1-.1v.5h-.1v-.1-.5l-.1.1s0-.1-.1-.1c-.1-.1-.1 0-.1 0v.1c.1-.1.2-.3.4-.4zM26.2 34.7c-.1-.1-.1-.1-.1-.2h.5c0 .1 0 .2-.1.3 0 .1-.1.1-.1.1v.3h.1v.1h-.2v-.1h.1v-.3l-.2-.2zM26.8 35.1h.5v.1c-.2 0-.3 0-.5-.1 0 .1 0 0 0 0zM26.9 34.4c.1.1.1.2.1.3h-.2c.1-.2.1-.2.1-.3zM26.9 34.7h.1v.4h-.1v-.4zM27.2 34.4c.1.1.1.2.1.3h-.2c0-.2.1-.2.1-.3zM27.1 34.7h.1v.4h-.1v-.4z"/><path class="ist8" d="M29.1 42.2h9.2v8.7h-9.2z"/><path class="ist9" d="M29.1 42.2h9.2c-.8 6.1-3.9 8.8-9.2 8.7v-8.7z"/><path class="ist10" d="M38.3 42.2h1.5v8.7h-1.5z"/><path class="ist11" d="M38.8 42.2h.3v1.9h-.3z"/><path class="ist12" d="M35.7 43.1h1.9v1.7h-1.9z"/><path class="ist13" d="M36 43.6h1.4v.1H36v-.1zm0 .6h.7v.1H36v-.1zm0-.3h1.4v.1H36v-.1z"/><path class="ist12" d="M34.9 49.1h2.7v.8h-2.7z"/><path class="ist13" d="M35.1 49.3h.3v.5h-.3zM35.6 49.3h.6v.5h-.6zM36.4 49.3h1v.1h-1zM36.4 49.6h.6v.1h-.6z"/><path class="ist14" d="M30.1 43.1c.2.1.3.2.3.5 0 0 0-.1-.1-.1h-.1v.1c0-.1 0-.1-.1-.1v.5H30v-.1-.5c-.1 0-.1.1-.1.1s0-.1-.1-.1h-.1v.1c0-.1.2-.3.4-.4zM30.5 43.4c0-.1-.1-.1-.1-.2h.5c0 .1 0 .2-.1.3 0 .1-.1.1-.1.1v.3h.1v.1h-.2v-.1h.1v-.3l-.2-.2zM31.2 43.9h.5v.1c-.2 0-.4 0-.5-.1 0 .1 0 0 0 0zM31.3 43.2c0 .1.1.2.1.3h-.2c0-.2.1-.3.1-.3zM31.2 43.5h.2v.4h-.2v-.4zM31.6 43.2c0 .1.1.2.1.3h-.2c0-.2 0-.3.1-.3zM31.5 43.5h.2v.4h-.2v-.4z"/></svg><svg id="it" viewBox="0 0 32 16" width="32" height="16" x="133.3" y="76" xmlns="http://www.w3.org/2000/svg"><style>.jst0{fill:#fff}.jst1{fill:#009246}.jst2{fill:#ce2b37}</style><path class="jst0" d="M0 0h32v16H0V0z"/><path class="jst1" d="M0 0h10.7v16H0V0z"/><path class="jst2" d="M21.3 0H32v16H21.3V0z"/></svg><svg id="pr" viewBox="0 0 32 16" width="32" height="16" x="73.3" y="60" xmlns="http://www.w3.org/2000/svg"><style>.kst0{fill:none}.kst1{fill:#ed0000}.kst2{fill:#fff}.kst3{fill:#0050f0}</style><path class="kst0" d="M0 0h23v16H0z"/><path class="kst1" d="M0 0h32v16H0V0z"/><path class="kst2" d="M0 3.2h32v3.2H0V3.2zm0 6.4h32v3.2H0V9.6z"/><path class="kst3" d="M0 0l14.8 8L0 16V0z"/><path class="kst2" d="M6.5 10.2L4.9 9.1l-1.6 1.1.6-1.8-1.6-1.2h2l.6-1.8.6 1.8h2L5.9 8.4l.6 1.8z"/></svg><svg id="profile" viewBox="0 0 44 44" width="44" height="44" x="193.3" xmlns="http://www.w3.org/2000/svg"><style>.lst0{fill:#ee7b5f}.lst1{clip-path:url(#lEllipse_1_copy_2_);fill:#fff}.lst2{fill:#31b978}.lst3{fill:#fff}.lst4{fill:#55a8fd}.lst5{fill:#fab12d}</style><circle id="lEllipse_1_copy_1_" class="lst0" cx="22" cy="22" r="22"/><defs><circle id="lEllipse_1_copy" cx="22" cy="22" r="22"/></defs><clipPath id="lEllipse_1_copy_2_"><use xlink:href="#lEllipse_1_copy" overflow="visible"/></clipPath><path class="lst1" d="M22.5 13c4.4-.1 7.9 3.4 8 7.8.1 4.4-3.4 7.9-7.8 8-4.4.1-7.9-3.4-8-7.8v-.1c0-4.3 3.5-7.9 7.8-7.9zM38 42.6c-6.9 8.6-19.4 9.9-27.9 3.1-1.1-.9-2.2-1.9-3.1-3.1 3.2-8.6 12.7-12.9 21.3-9.7 4.5 1.6 8 5.2 9.7 9.7z"/><g><circle id="lEllipse_1_copy_4" class="lst2" cx="22" cy="107" r="22"/><path class="lst3" d="M22 121l-1.8-1.8c-6.8-6-11.2-10-11.2-15-.1-3.9 3-7.1 6.9-7.2h.2c2.3 0 4.4 1 5.9 2.7 1.5-1.7 3.6-2.7 5.9-2.7 3.9-.1 7.1 3.1 7.2 7v.2c0 5-4.4 9-11.2 15L22 121z"/></g><g><circle id="lEllipse_1_copy_3" class="lst4" cx="-88" cy="107" r="22"/><path class="lst3" d="M-97.9 97.1c2.6-2.6 6.2-4.1 9.9-4.1 2.6 0 5.2.7 7.4 2.1.1.1.3.2.4.3l.1.1.1.1.1.1h.1l.2.1.1.1h.1l.1.1.1.1h.1l.1.1.1.1h.1l.1.1-2.7 2.7-5.3 5.3 5.6 5.6c-.4.8-1 1.5-1.6 2.2l-.3.3-5.9-5.9-5.3 5.3c-.8-.8-1.4-1.6-1.9-2.6L-84 97.1l1 .9-.3-.2c-5-2.5-11.1-.6-13.7 4.5s-.6 11.1 4.5 13.7 11.1.6 13.7-4.5c1.5-2.9 1.5-6.3 0-9.2l2.8-2.8c1.4 2.2 2.1 4.8 2.1 7.4 0 7.7-6.3 14-14 14s-14-6.3-14-14c-.1-3.6 1.4-7.2 4-9.8z"/></g><g><circle id="lEllipse_1_copy_2" class="lst5" cx="-88" cy="22" r="22"/><path class="lst3" d="M-96 10.8c5.9-4.3 14.1-3.5 19.1 1.9 2.3 2.5 3.7 5.8 3.9 9.2v1.5c-.2 3.2-1.4 6.2-3.4 8.6-3.2-.9-6.5-1.3-9.8-1.4-4.2-.1-8.4.3-12.4 1.4-2-2.4-3.2-5.3-3.4-8.4v-1.9c.3-4.4 2.5-8.4 6-10.9zm8.2 9.2c-.7.1-1.3.4-1.9.7-1.9 1.2-2.4 3.7-1.1 5.6 1.2 1.9 3.7 2.4 5.6 1.1 1.3-.8 1.9-2.3 1.8-3.8l3.9-9-.3-.3c-2.8 1.9-5.4 3.8-8 5.7zm-.4 2.3c1-.4 2 .1 2.4 1.1s-.1 2-1.1 2.4c-1 .4-2-.1-2.4-1.1-.1-.3-.1-.5-.1-.8.1-.7.6-1.3 1.2-1.6z"/></g></svg><svg id="profile-avatar" viewBox="0 0 66 66" width="66" height="66" y="27.6" xmlns="http://www.w3.org/2000/svg"><style>.mst0{fill:#25bafc}.mst1{fill:#31b978}.mst2{fill:#fff}.mst3{fill:#55a8fd}.mst4{fill:#fab12d}.mst5{clip-path:url(#mSVGID_2_);fill:#fff}</style><circle id="mEllipse_1_copy_1_" class="mst0" cx="33" cy="33" r="32.5"/><circle id="mEllipse_1_copy_4" class="mst1" cx="33" cy="118" r="22"/><path class="mst2" d="M33 132l-1.8-1.8c-6.8-6-11.2-10-11.2-15-.1-3.9 3-7.1 6.9-7.2h.2c2.3 0 4.4 1 5.9 2.7 1.5-1.7 3.6-2.7 5.9-2.7 3.9-.1 7.1 3.1 7.2 7v.2c0 5-4.4 9-11.2 15L33 132z"/><circle id="mEllipse_1_copy_3" class="mst3" cx="-77" cy="118" r="22"/><path class="mst2" d="M-86.9 108.1c2.6-2.6 6.2-4.1 9.9-4.1 2.6 0 5.2.7 7.4 2.1.1.1.3.2.4.3l.1.1.1.1.1.1h.1l.2.1.1.1h.1l.1.1.1.1h.1l.1.1.1.1h.1l.1.1-2.7 2.7-5.3 5.3 5.6 5.6c-.4.8-1 1.5-1.6 2.2l-.3.3-5.9-5.9-5.3 5.3c-.8-.8-1.4-1.6-1.9-2.6l12.1-12.2 1 .9-.3-.2c-5-2.5-11.1-.6-13.7 4.5s-.6 11.1 4.5 13.7c5.1 2.6 11.1.6 13.7-4.5 1.5-2.9 1.5-6.3 0-9.2l2.8-2.8c1.4 2.2 2.1 4.8 2.1 7.4 0 7.7-6.3 14-14 14s-14-6.3-14-14c-.1-3.6 1.4-7.2 4-9.8z"/><g><circle id="mEllipse_1_copy_2" class="mst4" cx="-77" cy="33" r="22"/><path class="mst2" d="M-85 21.8c5.9-4.3 14.1-3.5 19.1 1.9 2.3 2.5 3.7 5.8 3.9 9.2v1.5c-.2 3.2-1.4 6.2-3.4 8.6-3.2-.9-6.5-1.3-9.8-1.4-4.2-.1-8.4.3-12.4 1.4-2-2.4-3.2-5.3-3.4-8.4v-1.9c.3-4.4 2.5-8.4 6-10.9zm8.2 9.2c-.7.1-1.3.4-1.9.7-1.9 1.2-2.4 3.7-1.1 5.6 1.2 1.9 3.7 2.4 5.6 1.1 1.3-.8 1.9-2.3 1.8-3.8l3.9-9-.3-.3c-2.8 1.9-5.4 3.8-8 5.7zm-.4 2.3c1-.4 2 .1 2.4 1.1s-.1 2-1.1 2.4-2-.1-2.4-1.1c-.1-.3-.1-.5-.1-.8.1-.7.6-1.3 1.2-1.6z"/></g><g><defs><circle id="mSVGID_1_" cx="33" cy="33" r="32.5"/></defs><clipPath id="mSVGID_2_"><use xlink:href="#mSVGID_1_" overflow="visible"/></clipPath><path class="mst5" d="M33.7 19.7c6.5-.1 11.7 5 11.8 11.5S40.5 42.9 34 43s-11.7-5-11.8-11.5v-.1c0-6.4 5.2-11.7 11.5-11.7zm23 43.8C46.5 76.2 28 78.1 15.4 68c-1.6-1.3-3.3-2.8-4.6-4.6 4.7-12.7 18.8-19.1 31.5-14.3 6.7 2.4 11.8 7.7 14.4 14.4z"/></g></svg><svg id="purchase" viewBox="0 0 60 60" width="60" height="60" y="93.6" xmlns="http://www.w3.org/2000/svg"><style>.nst0{fill:#f2a327}.nst1{fill:#ffc61b}.nst2{fill:#d46c25}</style><path class="nst0" d="M47.6 14.5l.1-3.1c0-1.3-1-2.3-2.3-2.3H14.7c-1.3 0-2.3 1-2.3 2.3v3.1h35.2z"/><path class="nst1" d="M47.7 14.5c-.1 0-.1 0 0 0H12.5h-.1c-1.4 0-2.5 1.2-2.5 2.5v31.3c0 1.4 1.2 2.6 2.6 2.6h35.1c1.4 0 2.5-1.1 2.5-2.6V17c0-1.4-1.1-2.5-2.4-2.5z"/><path class="nst2" d="M20.6 19.5c-.9.3-1.4 1.4-1 2.2.2.4.5.9 1 .9.4 3.1 2.3 5.9 5.1 7.3 1.8 1 3.9 1.2 6 .9 2.2-.4 4.3-1.6 5.8-3.3 1.2-1.3 1.9-3 2.1-4.8.7-.3 1.2-1.1 1-2-.2-1-1.4-1.7-2.3-1.3-.9.3-1.4 1.5-.9 2.4.2.4.6.7.9.9-.3 2.4-1.8 4.6-3.9 5.8-1.8 1.1-3.9 1.4-6 1-3.3-.6-6.1-3.5-6.6-6.9.6-.4 1.1-1 1-1.8 0-.9-1.2-1.7-2.2-1.3z"/></svg><svg id="sales" viewBox="0 0 60 60" width="60" height="60" x="120" y="93.6" xmlns="http://www.w3.org/2000/svg"><style>.ost0{fill-rule:evenodd;clip-rule:evenodd}.ost0,.ost1{fill:#456fd8}.ost2{fill:none}.ost3{fill:#6f8dd9}.ost4{fill:#375fc4}.ost5{fill:#fefefe}.ost6{fill:#ffa800}</style><path class="ost0" d="M12 9.1h36.7c1.4 0 2.6 1.1 2.6 2.6v36.7c0 1.4-1.1 2.6-2.6 2.6H12c-1.4 0-2.6-1.2-2.6-2.6V11.7c0-1.4 1.2-2.6 2.6-2.6z"/><path class="ost1" d="M48.6 17.1c-.5.2-.9.4-1.1.5l-.3.1-.3.1-.3.2-.1.1v.6c0 .3-.1.6-.2.9-.1.3-.4.6-.6.8-.1.2-.3.3-.5.4l-.4.2h-.1c-.1 0-.3.1-.4.1h-.7-.1c-.1.1-.1.3-.2.3-.1.1-.2.3-.3.6-.2.4-.3.6-.4.7l-.3.6-.3.4c-.4.8-.9 1.5-1.3 2.4l-.1.2c-.1.2-.2.3-.3.6-.2.1-.3.3-.3.4.1.2.2.3.3.5.1.3.1.5.1.8 0 .3-.1.6-.1.9-.1.3-.2.5-.4.8l-.4.4c-.2.1-.3.2-.5.3-.2.1-.4.1-.5.2-.2.1-.4.1-.6.1-.3 0-.5 0-.7-.1-.2-.1-.3-.1-.5-.2-.3.3-.7.5-1.1.7l-.2.1c-1.5.9-2.4 1.6-3.4 2.2l-.1.1-.7.5-.3.2c-.3.2-.5.3-.8.5v.3c0 .2 0 .3-.1.5s-.1.4-.2.5c-.1.2-.2.3-.3.5l-.1.1c0 .1-.1.1-.1.1-.3.2-.5.4-.8.5-.3.1-.6.2-.9.2-.3 0-.6 0-.9-.1-.3-.1-.5-.3-.8-.5l-.1-.1-.1-.1c-.1-.1-.1-.2-.2-.3-.1-.1-.1-.2-.1-.3-.1-.1-.1-.1-.1-.2h-.2c-.1 0-.3-.1-.4-.1-.4-.1-.9-.1-1.3-.2l-.8-.1c-.3-.1-.6-.1-1-.2-.2-.1-.4-.1-.6-.1-.1 0 0 0-.6-.1h-.3l-.3-.1h-.2c-.2-.1-.4-.1-.4-.1h-.1l-.3-.1h-.1l-.3-.1h-.2l-.2.2s0 .1-.1.1l-.3.2c-.1.1-.3.2-.4.3-.2.1-.3.1-.5.2-.2 0-.4.1-.5 0-.2 0-.4 0-.6-.1-.1 0-.3-.1-.5-.1-.1 0-.2-.1-.2-.1-.3.2-.5.3-.8.5H14c-.3.2-.5.3-.8.5-.1.1-.3.2-.6.3l-.3.2c-.4.2-.7.5-1.1.7l-.1.1c-.5.3-1 .6-1.6 1v9.2c0 1.4 1.2 2.6 2.6 2.6h36.7c1.4 0 2.6-1.2 2.6-2.6V16c-.4.2-.9.4-1.4.6-.7.2-1.1.4-1.4.5z"/><path class="ost2" d="M8.8 39.6h.6v5h-.6zM39.9 27.2v-.4.4zM9.4 39.6h4.4v5H9.4zM9.4 45.8v2.5c0 1.4 1.2 2.6 2.6 2.6h1.9v-5.1H9.4zM13.9 34.1c.3.1.6.1.9.1.1 0 .2.1.3.1v4.1h5.1V32c.2.1.5.1.7.1.2 0 .3 0 .5.1v6.2h5v-3.5c.4 0 .8-.1 1.2-.2v3.8h5v-5h-1.4c.9-.6 1.7-1.2 2.6-1.8v.6h5v-7.5c.3.2.7.3 1.1.3h.1v1h5v-5h-5c.2-.4 4.5-.8 4.7-1.2h.3v-.5l.2-.4c.3-.6.6-1.1.9-1.7v2.6h5.1v-5.1H50c.3-.3.5-.7.6-1.2h.6v-1.9c0-1.4-1.1-2.6-2.6-2.6H12c-1.4 0-2.6 1.1-2.6 2.6v26.8h4.4v-4.4zm17.2-3l.9-.6.6-.4v.2l-1.8 1.1.3-.3zm-15.7 1l.4-.4c.1 0 .2.1.3.1.4.1.1 0 .5.1.5.1.8.1 1.1.2.1 0 .2 0 .5.1l.6.1h-3.5c0-.1.1-.2.1-.2zM46.1 33.4h5.1v5h-5.1z"/><path class="ost2" d="M39.9 27.2h5v5.1h-5zM46.1 27.2h5.1v5.1h-5.1zM46.1 39.6h5.1v5h-5.1zM39.9 26v0zM46.1 20.9h5.1v5h-5.1zM15 45.8h5.1v5.1H15zM33.7 33.4h5v5h-5zM33.7 39.6h5v5h-5zM39.9 39.6h5v5h-5zM46.1 45.8v5.1h2.5c1.4 0 2.6-1.2 2.6-2.6v-2.5h-5.1zM27.5 39.6h5v5h-5zM39.9 33.4h5v5h-5zM15 39.6h5.1v5H15zM33.7 45.8h5v5.1h-5zM39.9 45.8h5v5.1h-5zM27.5 45.8h5v5.1h-5zM21.3 45.8h5v5.1h-5zM21.3 39.6h5v5h-5z"/><path class="ost3" d="M50 14.7h1.2v-1.2h-.6c-.1.5-.3.9-.6 1.2zM32.5 30.1l-.6.4-.8.6-.4.2 1.8-1z"/><path class="ost3" d="M51.2 45.8v-1.2h-5.1v-5h5.1v-1.2h-5.1v-5h5.1v-1.2h-5.1v-5.1h5.1V26h-5.1v-5h5.1v-1.2h-5.1v-2.6c-.3.5-.6 1.1-.9 1.7l-.2.3v.5h-.3c-.2.4-4.5.8-4.7 1.2h5v5h-5V27.1h5v5.1h-5v-5.1h-.1c0-.1 0-.3.1-.4V25h-.1c-.4 0-.8-.1-1.1-.3v7.5h-5v-.6c-.9.6-1.8 1.2-2.6 1.8h1.4v5h-5v-3.8c-.4.2-.8.2-1.2.2v3.5h-5v-6.2c-.1 0-.3-.1-.5-.1-.2-.1-.5-.1-.7-.1v6.4H15v-4.1c-.1 0-.2 0-.3-.1-.3 0-.6-.1-.9-.1v4.3H9.4v1.2h4.4v5H9.4v1.2h4.4v5.1H15v-5.1h5.1v5.1h1.2v-5.1h5v5.1h1.2v-5.1h5v5.1h1.2v-5.1h5v5.1h1.2v-5.1h5v5.1h1.2v-5.1h5.1zm-31.1-1.2H15v-5h5.1v5zm6.2 0h-5v-5h5v5zm6.2 0h-5v-5h5v5zm6.2 0h-5v-5h5v5zm0-6.2h-5v-5h5v5zm6.3 6.2h-5v-5h5v5zm0-6.2h-5v-5h5v5z"/><path class="ost3" d="M18.2 32.1c-.3-.1-.5-.1-.5-.1-.3-.1-.5-.1-1.1-.2-.3-.1-.1 0-.5-.1-.1 0-.1 0-.3-.1l-.4.4c-.1 0-.1.1-.2.1h3.5-.5z"/><path class="ost1" d="M14.1 32.7c.5-1.2 2.2-1.6 3.2-.8.4.3.6.8.7 1.2 2.6.5 5.2.9 7.7 1.4.3-.5.8-.9 1.4-1 .6-.1 1.1.1 1.6.4 2.3-1.5 4.6-3.1 7-4.6-.1-.7 0-1.4.5-1.9s1.2-.7 1.8-.6c1.3-2.4 2.7-4.8 4-7.1-.4-.7-.4-1.6.1-2.2.6-.8 1.7-1 2.6-.6 2.1-.9 4.2-1.8 6.4-2.7v-2.3c0-1.4-1.1-2.6-2.6-2.6H12c-1.4 0-2.6 1.1-2.6 2.6v25.2c1.5-1 3-2 4.6-2.9 0-.7-.1-1.2.1-1.5z"/><path class="ost4" d="M47.2 17.1l-1.5.6c.4 1.1-.2 2.3-1.2 2.7-.5.1-.9.1-1.4 0-.5.9-1 1.7-1.4 2.5-.5.9-1.1 1.9-1.6 2.8-.3.5-.6 1-.9 1.6.6.7.7 1.9.1 2.6-.4.5-1 .8-1.6.8-.4 0-.8-.2-1.2-.4-.5.4-1 .7-1.5 1-1.4.9-2.7 1.8-4.1 2.7-.5.3-.9.6-1.4.9.1.7 0 1.3-.4 1.8-.8.9-2.3.9-3.1 0-.2-.3-.4-.7-.5-1-.7-.1-1.4-.3-2.2-.4-1-.2-2.1-.4-3.2-.6-.5-.1-.9-.2-1.4-.2-.3-.1-.6-.1-.9-.2-.3.5-.8.8-1.3 1-.6.1-1.2-.1-1.7-.4l-2.7 1.8c-.8.5-1.7 1.1-2.6 1.6v.7c.7-.4 1.2-.8 1.6-1l.1-.1c.4-.2.7-.5 1.1-.7l.3-.2c.3-.2.5-.3.6-.3.3-.2.5-.3.8-.5h.1c.3-.2.5-.3.8-.5.1.1.1.1.2.1.1.1.3.1.5.1s.4.1.6.1h.5c.2-.1.3-.1.5-.2.1-.1.3-.2.4-.3l.3-.2s.1 0 .1-.1l.2-.2h.2l.3.1h.1l.3.1h.1c.1 0 .3 0 .4.1h.2l.3.1h.3c.5.1.4.1.6.1.2 0 .4.1.6.1.3.1.7.1 1 .2l.8.1c.4.1.9.1 1.3.2.1 0 .3.1.4.1h.2c0 .1.1.2.1.2 0 .1.1.2.1.3.1.1.1.2.2.3 0 .1.1.1.1.1l.1.1c.3.2.5.3.8.5.3.1.6.1.9.1.3 0 .6-.1.9-.2.3-.1.6-.3.8-.5l.1-.1c.1 0 .1-.1.1-.1.1-.2.2-.3.3-.5.1-.2.1-.4.2-.5 0-.2.1-.4.1-.5v-.3c.3-.2.5-.3.8-.5l.3-.2.7-.5.1.1c1-.7 1.9-1.3 3.3-2.2l.2-.1c.4-.3.7-.5 1.1-.7.1.1.3.1.5.2s.5.1.7.1c.2 0 .4 0 .6-.1.2 0 .4-.1.5-.2.2-.1.3-.2.5-.3l.4-.4c.2-.2.3-.5.4-.8.1-.3.1-.6.1-.9 0-.3-.1-.5-.1-.8-.1-.2-.1-.4-.3-.5.1-.1.2-.3.3-.4.1-.3.3-.5.3-.6l.1-.2c.5-.8.9-1.6 1.3-2.4l.3-.5.3-.6c0-.1.1-.3.4-.7.1-.3.3-.5.3-.6.1-.1.1-.2.2-.3h.8c.1 0 .3 0 .4-.1h.1l.3-.1c.2-.1.4-.3.5-.4.3-.2.5-.5.6-.8.1-.3.2-.6.2-.9v-.6l.1-.1.3-.1.3-.1.3-.1c.2-.1.6-.3 1.1-.5.4-.2.8-.3 1.2-.5.5-.2 1-.4 1.4-.6v-.6c-1.1.5-2.4 1-3.8 1.6z"/><path class="ost5" d="M10.5 37.1l.1-.1c.4-.2.7-.5 1.1-.7.1-.1.3-.2.7-.5l.9-.6h.1c.4-.2.7-.5 1.1-.7l.1-.1.2-.1.2.1.1.1c.1.1.2.1.3.2.1 0 .2.1.3.1h.6c.1 0 .2-.1.3-.1.1-.1.2-.1.3-.2.1-.1.2-.1.3-.2.1-.1.1-.2.2-.3l.1-.1.1-.2H17.9l.6.1c-.1 0-.1 0 0 0l.4.1s.2 0 .4.1c.3 0 .4.1.5.1h.3l.2.1c.2 0 .1 0 .6.1l.9.1c.3 0 .5.1.8.1.1 0 .3.1 1 .2.4.1.9.1 1.3.2.3 0 .5.1.9.1H26.1l.1.2.1.1c0 .1.1.2.1.3 0 .1.1.2.1.2.1.1.1.1.1.2s.1.1.1.2c0 0 0 .1.1.1l.1.1c.1.1.3.2.4.2.2.1.4.1.6.1.2 0 .4 0 .5-.1.2-.1.3-.2.5-.3 0 0 .1 0 .1-.1l.1-.1c.1-.1.1-.2.2-.3 0-.1.1-.2.1-.3v-.4-.7l.2-.1.1-.1c.1-.1.3-.2.5-.3.3-.2.4-.3.5-.4l.4-.2.7-.5.1-.1 3.3-2.2.1-.1c.5-.3.9-.6 1.4-.9l.1-.1.2-.1.2.1.1.1h.1c.2.1.3.2.5.2s.3.1.4.1h.3c.1 0 .2-.1.3-.1.1-.1.2-.1.3-.2l.3-.3c.1-.1.2-.3.2-.4.1-.2.1-.3.1-.5s0-.3-.1-.5-.1-.3-.3-.5l-.1-.1-.1-.2.1-.2.1-.1c.2-.4.5-.9.8-1.4l.1-.1.1-.1c.2-.4.4-.8.7-1.2.1-.3.4-.7.7-1.2l.3-.5c.1-.2.3-.4.4-.6.2-.3.3-.5.3-.6.1-.1.2-.3.3-.6.1-.1.2-.4.4-.6l.1-.1.1-.2.2.1h.1c.1 0 .2 0 .3.1h.8c.2-.1.3-.2.5-.3.1-.1.3-.3.3-.5.1-.2.1-.4.1-.6 0-.2 0-.4-.1-.6l-.1-.3-.1-.2.3-.1.2-.1.4-.1.5-.2.3-.1.3-.1.3-.1c.5-.2.7-.3.9-.4.4-.1.7-.3 1.1-.5.5-.2 1.1-.5 1.9-.8v-.9c-2.1.9-4.2 1.8-6.4 2.7-.9-.4-2-.2-2.6.6-.5.7-.5 1.6-.1 2.2-1.3 2.4-2.7 4.8-4 7.1-.7-.1-1.4.1-1.8.6-.5.5-.6 1.2-.5 1.9-2.3 1.6-4.6 3.1-7 4.6-.5-.3-1-.5-1.6-.4-.6.1-1.1.5-1.4 1-2.6-.5-5.2-.9-7.7-1.4-.1-.5-.3-.9-.7-1.2-1-.9-2.7-.4-3.2.8-1 .7-.9 1.2-.9 1.6-1.5 1-3 2-4.6 2.9v.9c.4-.1.7-.3 1.1-.6zM18.4 34s-.1 0 0 0z"/><path class="ost5" d="M49.3 15.6c-.4.1-.7.3-1.1.5-.2.1-.5.2-.9.4l-.3.1-.3.1-.3.1-.5.2-.4.1-.2.1-.3.1.1.2.1.3c.1.2.1.4.1.6 0 .2-.1.4-.1.6-.1.2-.2.4-.3.5-.1.1-.3.2-.5.3h-.8c-.1 0-.2 0-.3-.1h-.1l-.2-.1-.2.4-.1.1c-.2.3-.3.5-.4.6-.1.3-.3.5-.3.6 0 .1-.1.3-.3.6-.1.2-.3.4-.4.6l-.3.7c-.3.5-.5.9-.7 1.2-.2.4-.5.8-.7 1.2l-.1.1-.1.1c-.3.5-.6.9-.8 1.4l-.1.1-.1.2.1.2.1.1c.1.1.2.3.3.5.1.2.1.3.1.5s0 .3-.1.5c-.1.1-.1.3-.2.4l-.3.3c-.1.1-.2.1-.3.2-.1.1-.2.1-.3.1h-.3c-.1 0-.3 0-.4-.1s-.1-.2-.3-.3h-.1l-.1-.1-.2-.1-.2.1-.1.1c-.5.3-.9.6-1.4.9l-.1.1-3.3 2.2-.1.1-.7.5-.4.2c-.1.1-.2.2-.5.4-.2.1-.4.2-.5.3l-.1.1-.2.1v1.1c0 .1-.1.2-.1.3-.1.1-.1.2-.2.3l-.1.1-.1.1c-.1.1-.3.2-.5.3-.2.1-.4.1-.5.1-.2 0-.4 0-.6-.1-.1-.1-.3-.1-.4-.2l-.1-.1-.1-.1c0-.1-.1-.1-.1-.2s-.1-.1-.1-.2-.1-.1-.1-.2-.1-.2-.1-.3l.3-.2-.1-.2H25.6c-.4-.1-.7-.1-.9-.1-.4-.1-.9-.2-1.3-.2-.7-.1-.9-.2-1-.2-.3-.1-.5-.1-.8-.1l-.9-.1c-.5-.1-.4-.1-.6-.1l-.1-.2h-.3c-.1 0-.2-.1-.5-.1-.2-.1-.4-.1-.4-.1l-.3-.1-.6-.1H17.6l-.2.1-.1.1c-.1.1-.1.2-.2.3-.1.1-.2.2-.3.2-.1.1-.2.1-.3.2-.1 0-.2.1-.3.1h-.6c-.1 0-.2-.1-.3-.1-.1-.1-.2-.1-.3-.2l-.1-.1-.2-.1-.2.1-.1.1c-.3.2-.7.5-1.1.7h-.1l-.9.6c-.4.3-.7.4-.7.5-.4.2-.7.5-1.1.7l-.1.1c-.4.2-.7.5-1 .7v.7c.9-.5 1.7-1.1 2.6-1.6l2.7-1.8c.5.3 1.1.5 1.7.4.6-.2 1-.5 1.3-1 .3 0 .6.1.9.2.5.1.9.1 1.4.2 1 .2 2.1.4 3.2.6.7.1 1.5.3 2.2.4.1.3.3.7.5 1 .8.9 2.3.9 3.1 0 .4-.5.5-1.2.4-1.8.5-.3.9-.6 1.4-.9 1.4-.9 2.7-1.8 4.1-2.7.5-.3 1-.7 1.5-1 .4.2.8.4 1.2.4.7 0 1.2-.3 1.6-.8.6-.8.5-1.9-.1-2.6.3-.5.6-1 .9-1.6.5-.9 1-1.9 1.6-2.8.5-.9.9-1.7 1.4-2.5.4.1.9.1 1.4 0 1-.4 1.6-1.6 1.2-2.7l1.5-.6c1.3-.6 2.6-1.1 3.9-1.7v-.6c-.6 0-1.1.3-1.7.5z"/><g><path class="ost6" d="M30.7 21.4v2.2c.3-.1.5-.2.7-.4.2-.2.3-.5.3-.7 0-.3-.1-.5-.2-.7-.2-.2-.4-.3-.8-.4zM29.4 17.9c-.1.2-.2.4-.2.6 0 .2.1.4.2.6.1.2.3.3.5.4v-2c-.2.1-.4.2-.5.4z"/><path class="ost6" d="M25.3 13.7v11.7l5 3.8 5.1-3.8V13.7H25.3zM32.5 24c-.4.5-1 .8-1.8.9v1h-.8v-1c-.7-.1-1.2-.3-1.6-.7-.4-.4-.7-1-.8-1.7l1.5-.2c.1.3.2.6.3.8.2.2.4.4.6.5v-2.4c-.7-.2-1.3-.5-1.6-1-.3-.4-.5-1-.5-1.6 0-.7.2-1.2.6-1.6.4-.4.9-.7 1.6-.7v-.6h.8v.6c.6.1 1.1.3 1.5.6.3.3.6.8.7 1.4l-1.4.2c-.1-.5-.3-.8-.7-.9v2.2c.9.3 1.6.6 1.9 1 .3.4.5.9.5 1.5-.2.6-.4 1.2-.8 1.7z"/><path class="ost5" d="M30.7 19.8v-2.2c.4.1.6.5.7.9l1.4-.2c-.1-.6-.3-1-.7-1.4-.4-.3-.9-.5-1.5-.6v-.6h-.8v.6c-.7.1-1.2.3-1.6.7-.4.4-.6.9-.6 1.6 0 .6.2 1.1.5 1.6.4.4.9.8 1.6 1v2.4c-.2-.1-.4-.3-.6-.5-.2-.2-.3-.5-.3-.8l-1.5.2c.1.7.4 1.3.8 1.7.4.4 1 .7 1.6.7v1h.8v-1c.8-.1 1.3-.4 1.8-.9.4-.5.6-1 .6-1.7 0-.6-.2-1.1-.5-1.5-.1-.5-.7-.8-1.7-1zm-.8-.3c-.3-.1-.4-.3-.5-.4-.1-.2-.2-.4-.2-.6 0-.2.1-.4.2-.6.1-.2.3-.3.5-.4v2zm1.5 3.7c-.2.2-.4.4-.7.4v-2.2c.4.1.6.2.8.4.1.2.2.4.2.7 0 .2-.1.5-.3.7z"/></g></svg><svg id="subsid" viewBox="0 0 23 20.3" width="23" height="20.3" x="44" y="153.6" xmlns="http://www.w3.org/2000/svg"><style>.pst0{fill:none}.pst1{fill:#fefefe}.pst2{fill:#3498db}.pst3{fill:#2ecc71}.pst4{fill:#27ae60}.pst5{fill:#2980b9}.pst6{fill:#ffa800}.pst7{fill:#ffcd02}</style><path class="pst0" d="M19.3 14.7c-.5 0-1 .2-1.4.6-.4.3-.6.8-.6 1.4 0 .5.2 1 .6 1.4.3.3.8.6 1.4.6.5 0 1-.2 1.4-.6.4-.4.6-.8.6-1.4 0-.5-.2-1-.6-1.4-.4-.4-.9-.6-1.4-.6zM3.8 14.7c-.5 0-1 .2-1.4.6-.3.3-.6.8-.6 1.4 0 .5.2 1 .6 1.4.4.3.8.6 1.4.6.5 0 1-.2 1.4-.6.3-.4.6-.8.6-1.4 0-.5-.2-1-.6-1.4-.4-.4-.9-.6-1.4-.6zM16 16.9z"/><path class="pst0" d="M19.3 14.7c-.5 0-1 .2-1.4.6-.4.3-.6.8-.6 1.4 0 .5.2 1 .6 1.4.3.3.8.6 1.4.6.5 0 1-.2 1.4-.6.4-.4.6-.8.6-1.4 0-.5-.2-1-.6-1.4-.4-.4-.9-.6-1.4-.6z"/><path class="pst1" d="M16 16.9v-.3c0-.2 0-.4.1-.6 0-.2.1-.5.2-.7H6.8c.1.3.1.5.2.7V16.9c0 .1 0 .3-.1.5 0 .1 0 .1-.1.2h9.3c0-.2-.1-.5-.1-.7z"/><path class="pst0" d="M3.8 14.7c-.5 0-1 .2-1.4.6-.3.3-.6.8-.6 1.4 0 .5.2 1 .6 1.4.4.3.8.6 1.4.6.5 0 1-.2 1.4-.6.3-.4.6-.8.6-1.4 0-.5-.2-1-.6-1.4-.4-.4-.9-.6-1.4-.6zM4.8 13.5c-.1 0-.2-.1-.3-.1.2.1.3.1.3.1zM12.3 2c-.5-.2-1-.2-1.5-.1-.5.2-.9.5-1.1 1-.2.5-.2 1-.1 1.5.2.5.5.9 1 1.1.5.2 1 .2 1.5.1.5-.2.9-.5 1.1-1 .2-.5.2-1 .1-1.5s-.5-.9-1-1.1z"/><path class="pst1" d="M10.3 6.7c-.3-.1-.5-.3-.8-.4 0-.1-.1-.2-.2-.2 0 0-.1 0-.1-.1L9 5.8l-4.4 7.7c.1 0 .2.1.3.1.1 0 .1 0 .2.1.1 0 .2.1.2.1.2 0 .5.2.7.4l.1.1c.1.2.3.3.4.5L11 6.9c-.2 0-.5-.1-.7-.2z"/><path class="pst2" d="M14.5 2.5c-.2-.4-.4-.8-.7-1.1-.3-.3-.6-.5-1.1-.7-.4-.2-.8-.2-1.3-.2-.4 0-.9.1-1.2.2-.3.2-.7.4-1 .7-.3.3-.5.7-.7 1.1-.1.4-.2.8-.2 1.2 0 .4.1.9.3 1.2 0 .4.2.6.4.9l.2.2s.1 0 .1.1c.1.1.2.1.2.2.2.2.5.3.7.4.2.1.5.2.7.2h1c.3 0 .5-.1.7-.2.3-.1.5-.3.7-.4.1-.1.2-.1.2-.2 0 0 .1 0 .1-.1.3-.1.4-.2.4-.2.2-.2.4-.5.5-.8.2-.4.2-.8.2-1.2.1-.5 0-.9-.2-1.3zm-1.2 2c-.2.5-.6.8-1.1 1-.5.2-1 .1-1.5-.1s-.8-.6-1-1.1c-.2-.5-.1-1 .1-1.5s.6-.8 1.1-1c.5-.2 1-.2 1.5.1.5.2.8.6 1 1.1.1.5.1 1.1-.1 1.5z"/><path class="pst3" d="M6 14.2c-.2-.2-.4-.3-.7-.5-.1 0-.2-.1-.2-.1-.1 0-.1 0-.2-.1-.1 0-.2-.1-.3-.1-.3-.1-.5-.1-.8-.1-.4 0-.9.1-1.2.2-.4.2-.8.4-1.1.7-.3.3-.5.6-.7 1.1-.2.4-.3.8-.3 1.3s.1.9.3 1.2c.2.4.4.8.7 1.1.3.3.7.5 1.1.7.4.2.8.3 1.2.3s.9-.1 1.2-.3c.4-.2.8-.4 1.1-.7.3-.3.5-.6.7-1.1 0-.1.1-.1.1-.2s0-.1.1-.2v-.5-.3-.6c0-.2-.1-.5-.2-.7-.1-.2-.2-.4-.3-.5-.1-.2-.2-.3-.4-.5l-.1-.1zM5.1 18c-.3.3-.8.6-1.4.6-.5 0-1-.2-1.4-.6-.3-.4-.6-.8-.6-1.4 0-.5.2-1 .6-1.4.4-.3.8-.6 1.4-.6.5 0 1 .2 1.4.6.3.3.6.8.6 1.4 0 .5-.2 1-.6 1.4z"/><path class="pst4" d="M3.8 14.7c-.5 0-1 .2-1.4.6-.3.3-.6.8-.6 1.4 0 .5.2 1 .6 1.4.4.3.8.6 1.4.6.5 0 1-.2 1.4-.6.3-.4.6-.8.6-1.4 0-.5-.2-1-.6-1.4-.4-.4-.9-.6-1.4-.6zm0 3c-.6 0-1.1-.5-1.1-1.1 0-.6.5-1.1 1.1-1.1s1.1.5 1.1 1.1c0 .6-.5 1.1-1.1 1.1z"/><path class="pst1" d="M3.8 15.5c-.6 0-1.1.5-1.1 1.1 0 .6.5 1.1 1.1 1.1s1.1-.5 1.1-1.1c0-.6-.5-1.1-1.1-1.1z"/><path class="pst0" d="M13.3 3.1c-.2-.5-.5-.9-1-1.1-.5-.2-1-.2-1.5-.1-.5.2-.9.5-1.1 1-.2.5-.2 1-.1 1.5.2.5.5.9 1 1.1.5.2 1 .2 1.5.1.5-.2.9-.5 1.1-1 .3-.5.3-1.1.1-1.5z"/><path class="pst0" d="M12.3 2c-.5-.2-1-.2-1.5-.1-.5.2-.9.5-1.1 1-.2.5-.2 1-.1 1.5.2.5.5.9 1 1.1.5.2 1 .2 1.5.1.5-.2.9-.5 1.1-1 .2-.5.2-1 .1-1.5s-.5-.9-1-1.1z"/><path class="pst5" d="M12.3 2c-.5-.2-1-.2-1.5-.1-.5.2-.9.5-1.1 1-.2.5-.2 1-.1 1.5.2.5.5.9 1 1.1.5.2 1 .2 1.5.1.5-.2.9-.5 1.1-1 .2-.5.2-1 .1-1.5s-.5-.9-1-1.1zm-.8 2.8c-.6 0-1.1-.5-1.1-1.1 0-.6.5-1.1 1.1-1.1.6 0 1.1.5 1.1 1.1 0 .6-.5 1.1-1.1 1.1z"/><path class="pst1" d="M11.5 2.6c-.6 0-1.1.5-1.1 1.1 0 .6.5 1.1 1.1 1.1.6 0 1.1-.5 1.1-1.1 0-.6-.5-1.1-1.1-1.1z"/><path class="pst6" d="M19.3 14.7c-.5 0-1 .2-1.4.6-.4.3-.6.8-.6 1.4 0 .5.2 1 .6 1.4.3.3.8.6 1.4.6.5 0 1-.2 1.4-.6.4-.4.6-.8.6-1.4 0-.5-.2-1-.6-1.4-.4-.4-.9-.6-1.4-.6zm0 3c-.6 0-1.1-.5-1.1-1.1 0-.6.5-1.1 1.1-1.1.6 0 1.1.5 1.1 1.1 0 .6-.5 1.1-1.1 1.1z"/><path class="pst1" d="M19.3 15.5c-.6 0-1.1.5-1.1 1.1 0 .6.5 1.1 1.1 1.1.6 0 1.1-.5 1.1-1.1 0-.6-.5-1.1-1.1-1.1z"/><path class="pst0" d="M13.7 6.1c.1 0 .1-.1 0 0 .1-.1.1 0 0 0zM13.3 4.5c.2-.5.2-1 .1-1.5-.2-.5-.5-.9-1-1.1-.5-.2-1-.2-1.5-.1-.5.2-.9.5-1.1 1-.2.5-.2 1-.1 1.5.2.5.5.9 1 1.1.5.2 1 .2 1.5.1.4-.1.8-.5 1.1-1zM19.3 14.7c-.5 0-1 .2-1.4.6-.4.3-.6.8-.6 1.4 0 .5.2 1 .6 1.4.3.3.8.6 1.4.6.5 0 1-.2 1.4-.6.4-.4.6-.8.6-1.4 0-.5-.2-1-.6-1.4-.4-.4-.9-.6-1.4-.6z"/><path class="pst1" d="M17.1 14.2c.2-.2.4-.3.7-.5.1 0 .2-.1.2-.1.1 0 .1 0 .2-.1.1 0 .2-.1.3-.1L14 5.8l-.2.2s-.1 0-.1.1c-.1.1-.2.1-.2.2-.2.2-.5.3-.7.4-.2.1-.5.2-.7.2l4.5 7.8c.1-.2.2-.3.4-.5h.1z"/><path class="pst7" d="M22.3 15.3c-.2-.4-.4-.8-.7-1.1-.3-.3-.6-.5-1.1-.7-.4-.2-.8-.2-1.3-.2-.3 0-.5 0-.8.1-.1 0-.2.1-.3.1-.1 0-.1 0-.2.1-.1 0-.2.1-.2.1-.3.1-.5.3-.7.5l-.1.1c-.1.1-.3.3-.4.5-.1.2-.2.3-.3.5-.1.2-.2.5-.2.7 0 .2-.1.4-.1.6v.3c0 .2.1.5.2.7 0 .1 0 .1.1.2.2.4.4.8.7 1.1.3.3.6.5 1.1.7.4.2.8.3 1.2.3.4 0 .9-.1 1.3-.3.4-.2.8-.4 1.1-.7.3-.3.5-.6.7-1.1.2-.4.2-.8.2-1.2s-.1-.9-.2-1.3zM20.6 18c-.3.3-.8.6-1.4.6-.5 0-1-.2-1.4-.6-.4-.4-.6-.8-.6-1.4 0-.5.2-1 .6-1.4.3-.3.8-.6 1.4-.6.5 0 1 .2 1.4.6.4.3.6.8.6 1.4 0 .5-.2 1-.6 1.4z"/><path class="pst1" d="M19.3 15.5c-.6 0-1.1.5-1.1 1.1 0 .6.5 1.1 1.1 1.1s1.1-.5 1.1-1.1c0-.6-.5-1.1-1.1-1.1z"/></svg><svg id="wishlist" viewBox="0 0 44 44" width="44" height="44" y="153.6" xmlns="http://www.w3.org/2000/svg"><style>.qst0{fill:#ee7b5f}.qst1{clip-path:url(#qEllipse_1_copy_2_);fill:#fff}.qst2{fill:#31b978}.qst3{fill:#fff}.qst4{fill:#55a8fd}.qst5{fill:#fab12d}</style><circle id="qEllipse_1_copy_1_" class="qst0" cx="22" cy="-63" r="22"/><defs><circle id="qEllipse_1_copy" cx="22" cy="-63" r="22"/></defs><clipPath id="qEllipse_1_copy_2_"><use xlink:href="#qEllipse_1_copy" overflow="visible"/></clipPath><path class="qst1" d="M22.5-72c4.4-.1 7.9 3.4 8 7.8.1 4.4-3.4 7.9-7.8 8-4.4.1-7.9-3.4-8-7.8v-.1c0-4.3 3.5-7.9 7.8-7.9zM38-42.4c-6.9 8.6-19.4 9.9-27.9 3.1-1.1-.9-2.2-1.9-3.1-3.1 3.2-8.6 12.7-12.9 21.3-9.7 4.5 1.6 8 5.2 9.7 9.7z"/><g><circle id="qEllipse_1_copy_4" class="qst2" cx="22" cy="22" r="22"/><path class="qst3" d="M22 36l-1.8-1.8c-6.8-6-11.2-10-11.2-15-.1-3.9 3-7.1 6.9-7.2h.2c2.3 0 4.4 1 5.9 2.7 1.5-1.7 3.6-2.7 5.9-2.7 3.9-.1 7.1 3.1 7.2 7v.2c0 5-4.4 9-11.2 15L22 36z"/></g><g><circle id="qEllipse_1_copy_3" class="qst4" cx="-88" cy="22" r="22"/><path class="qst3" d="M-97.9 12.1C-95.3 9.5-91.7 8-88 8c2.6 0 5.2.7 7.4 2.1.1.1.3.2.4.3l.1.1.1.1.1.1h.1l.2.1.1.1h.1l.1.1.1.1h.1l.1.1.1.1h.1l.1.1-2.7 2.7-5.3 5.3 5.6 5.6c-.4.8-1 1.5-1.6 2.2l-.3.3-5.9-5.9-5.3 5.3c-.8-.8-1.4-1.6-1.9-2.6L-84 12.1l1 .9-.3-.2c-5-2.5-11.1-.6-13.7 4.5s-.6 11.1 4.5 13.7 11.1.6 13.7-4.5c1.5-2.9 1.5-6.3 0-9.2l2.8-2.8c1.4 2.2 2.1 4.8 2.1 7.4 0 7.7-6.3 14-14 14s-14-6.3-14-14c-.1-3.6 1.4-7.2 4-9.8z"/></g><g><circle id="qEllipse_1_copy_2" class="qst5" cx="-88" cy="-63" r="22"/><path class="qst3" d="M-96-74.2c5.9-4.3 14.1-3.5 19.1 1.9 2.3 2.5 3.7 5.8 3.9 9.2v1.5c-.2 3.2-1.4 6.2-3.4 8.6-3.2-.9-6.5-1.3-9.8-1.4-4.2-.1-8.4.3-12.4 1.4-2-2.4-3.2-5.3-3.4-8.4v-1.9c.3-4.4 2.5-8.4 6-10.9zm8.2 9.2c-.7.1-1.3.4-1.9.7-1.9 1.2-2.4 3.7-1.1 5.6 1.2 1.9 3.7 2.4 5.6 1.1 1.3-.8 1.9-2.3 1.8-3.8l3.9-9-.3-.3c-2.8 1.9-5.4 3.8-8 5.7zm-.4 2.3c1-.4 2 .1 2.4 1.1s-.1 2-1.1 2.4c-1 .4-2-.1-2.4-1.1-.1-.3-.1-.5-.1-.8.1-.7.6-1.3 1.2-1.6z"/></g></svg></svg>