<?xml version="1.0" encoding="utf-8"?>
<!-- Generator: Adobe Illustrator 21.0.0, SVG Export Plug-In . SVG Version: 6.00 Build 0)  -->
<svg version="1.1" id="Layer_1" xmlns="http://www.w3.org/2000/svg" xmlns:xlink="http://www.w3.org/1999/xlink" x="0px" y="0px"
	 viewBox="0 0 60 60" style="enable-background:new 0 0 60 60;" xml:space="preserve">
<style type="text/css">
	.st0{fill:#FBB87D;}
	.st1{fill-rule:evenodd;clip-rule:evenodd;fill:#BDC3C7;}
	.st2{fill-rule:evenodd;clip-rule:evenodd;fill:#FFA016;}
	.st3{fill:none;}
	.st4{fill:#BDC3C7;}
	.st5{fill:#E25162;}
	.st6{fill:#39517A;}
	.st7{fill:#5065A1;}
	.st8{fill:#394C81;}
	.st9{fill:#F0F1F1;}
	.st10{fill:#E3B794;}
	.st11{fill:#F1CDB0;}
	.st12{fill:#919090;}
	.st13{fill:#79302A;}
</style>
<g>
	<g>
		<path class="st0" d="M32.5,26C32.5,26.1,32.5,26.1,32.5,26C32.5,26.1,32.5,26.1,32.5,26L32.5,26z"/>
	</g>
	<g>
		<path class="st1" d="M17.3,52.3c1.1-0.1,2.3,0,3.4,0c8.2,0,13.2,0,21.3,0c0.3,0,0.7-0.1,0.9,0.2c0.3,0.3,0,0.9-0.4,0.8
			c-9.4,0-15.6,0-24.9,0c-0.1,0-0.3,0-0.4-0.1C16.9,52.9,16.9,52.4,17.3,52.3L17.3,52.3z"/>
	</g>
	<g>
		<path class="st2" d="M28.8,51.5c0.8,0,1.6,0,2.4,0c-0.5,0-1,0-1.6,0C29.3,51.5,29.1,51.5,28.8,51.5L28.8,51.5z"/>
	</g>
	<g>
		<path class="st3" d="M33.1,30.1c0.5-0.9,1-1.7,1.5-2.6C34.1,28.3,33.6,29.2,33.1,30.1C33.1,30.1,33.1,30.1,33.1,30.1z"/>
		<path class="st3" d="M27.9,32.1L27.9,32.1c0.2,0.4,0.4,0.7,0.6,1.1l0,0C28.3,32.8,28.1,32.4,27.9,32.1z"/>
		<path class="st3" d="M31.5,33.1L31.5,33.1c0.2-0.3,0.4-0.7,0.6-1.1h0C31.9,32.4,31.7,32.8,31.5,33.1z"/>
		<path class="st4" d="M31.5,33.1c0.2-0.3,0.4-0.7,0.6-1.1h0c0.4-0.7,0.7-1.3,1.1-2c0,0,0,0,0,0c0,0,0,0.1-0.1,0.1l-0.9,0.6
			c0,0-0.1-0.1-0.2-0.2l-0.9,0.9L31.5,33.1z"/>
		<path class="st4" d="M30.8,29.2c-0.4-0.4-0.7-0.7-0.8-0.8c-0.1,0.1-0.4,0.4-0.8,0.8H30H30.8z"/>
		<path class="st4" d="M27.9,32.1c0.2,0.3,0.4,0.7,0.6,1.1l0.3-1.7L28,30.6c-0.1,0.1-0.2,0.2-0.2,0.2l-0.8-0.6
			c0.3,0.6,0.6,1.1,0.9,1.7v0C27.9,31.9,27.9,32,27.9,32.1L27.9,32.1z"/>
		<polygon class="st4" points="31.3,27.5 31.3,27.5 30,28.4 		"/>
		<polygon class="st4" points="28.7,27.5 28.7,27.5 30,28.4 		"/>
		<path class="st5" d="M31.5,33.1L31.5,33.1l-0.3-1.6l0.9-0.9c-0.3-0.3-0.8-0.8-1.2-1.3H30h-0.8c-0.4,0.5-1,1-1.3,1.3l0.9,0.9
			l-0.3,1.7l0,0c0,0.1,0.1,0.1,0.1,0.2c0.1,0.2,0.2,0.5,0.4,0.7c0.7,0,1.3,0,2,0c0.1-0.2,0.2-0.5,0.4-0.7
			C31.4,33.3,31.4,33.2,31.5,33.1z"/>
		<path class="st6" d="M32,34.1c4,0,7.9,0,11.9,0c-0.1-1.1-0.3-2.2-1.1-3c-2.2-2-5.1-2.6-7.9-3.4c-0.1,0-0.3-0.1-0.4-0.2l2.3,1.8
			L32,34.1z"/>
		<path class="st7" d="M32.1,32.1c-0.2,0.4-0.4,0.7-0.6,1.1c0,0.1-0.1,0.1-0.1,0.2c-0.1,0.2-0.2,0.5-0.4,0.7c0.3,0,0.7,0,1,0
			l4.9-4.7l-2.3-1.8c-0.5,0.9-1,1.7-1.5,2.6C32.8,30.7,32.4,31.4,32.1,32.1z"/>
		<path class="st8" d="M23.1,29.3l2.3-1.8c-0.1,0.1-0.3,0.1-0.4,0.2c-2.7,0.9-5.7,1.4-7.9,3.4c-0.7,0.8-1,1.9-1.1,3c4,0,8,0,11.9,0
			L23.1,29.3z"/>
		<path class="st7" d="M28,34.1c0.3,0,0.7,0,1,0c-0.1-0.2-0.2-0.5-0.4-0.7c0-0.1-0.1-0.1-0.1-0.2c-0.2-0.4-0.4-0.7-0.6-1.1
			c0-0.1-0.1-0.1-0.1-0.2c-0.8-1.5-1.6-3-2.5-4.4l-2.3,1.8L28,34.1z"/>
		<path class="st4" d="M47.3,34.8c-0.2-0.5-0.7-0.8-1.2-0.8c-0.7,0-1.4,0-2.1,0c-4,0-7.9,0-11.9,0c-0.3,0-0.7,0-1,0
			c-0.7,0-1.3,0-2,0c-0.3,0-0.7,0-1,0c-4,0-7.9,0-11.9,0c-0.5,0-1,0-1.5,0c-0.3,0-0.6,0-0.9,0.1c-0.4,0.1-0.8,0.4-1,0.7
			c-0.2,0.3-0.1,0.7-0.1,1.1c1.1,4.7,2.2,9.5,3.3,14.2c0.1,0.4,0.1,0.9,0.5,1.1c0.4,0.3,0.9,0.2,1.3,0.2c8.4,0,16.8,0,25.1,0
			c0.7,0,1.3-0.6,1.4-1.2c1-4.7,2.1-9.4,3.2-14.1C47.5,35.8,47.5,35.3,47.3,34.8z"/>
		<path class="st9" d="M30.8,29.2c0.4,0.5,1,1,1.2,1.3c0.1,0.1,0.2,0.2,0.2,0.2l0.9-0.6c0,0,0-0.1,0.1-0.1c0.5-0.9,1-1.7,1.5-2.6
			l-1.4-1.3l-1.9,1.3L30,28.4C30.1,28.5,30.4,28.8,30.8,29.2z"/>
		<path class="st9" d="M28,30.6c0.3-0.3,0.8-0.8,1.3-1.3c0.4-0.4,0.7-0.7,0.8-0.8l-1.3-0.9l-1.9-1.3l-1.4,1.3c0.5,0.9,1,1.8,1.5,2.7
			l0,0l0.8,0.6C27.8,30.7,27.9,30.7,28,30.6z"/>
		<path class="st10" d="M31.3,27.5l1.3-0.9c0-0.1-0.1-0.5-0.2-0.6c-1.6,0.7-3.3,0.8-5,0c-0.1,0.2-0.1,0.5-0.2,0.6l1.3,0.9l1.3,0.9
			L31.3,27.5z"/>
		<path class="st11" d="M32.5,25.9c2.1-0.9,3.9-3,4.8-6c0.9-0.9,1.5-2.3,1.2-3.6c-0.1-0.4-0.6-0.2-0.9-0.1c0-2.2,0.3-4.7-1-6.7
			C35.3,7.6,33.1,7,31,6.8h-2c-2,0.2-4.2,0.8-5.4,2.6c-1.4,2-1.1,4.5-1.1,6.8c-0.3-0.1-0.7-0.3-0.9,0.1c-0.3,1.1,0.1,2.4,0.9,3.3
			c0.4,0.4,0.6,1,0.8,1.5c1.1,2.5,2.6,4.1,4.3,4.9C29.1,26.7,30.9,26.6,32.5,25.9z"/>
	</g>
	<g>
		<path class="st12" d="M26.7,43.8h-0.5l-0.2-0.5h-0.9L25,43.8h-0.5l0.8-2.1h0.5L26.7,43.8z M25.9,43l-0.3-0.8L25.4,43H25.9z"/>
		<path class="st12" d="M27.1,41.7h0.8c0.2,0,0.3,0,0.4,0c0.1,0,0.2,0.1,0.3,0.2c0.1,0.1,0.2,0.2,0.2,0.3c0,0.1,0.1,0.3,0.1,0.5
			c0,0.2,0,0.3-0.1,0.5c-0.1,0.2-0.1,0.3-0.2,0.4c-0.1,0.1-0.2,0.1-0.3,0.2c-0.1,0-0.2,0-0.4,0h-0.8V41.7z M27.5,42v1.4h0.3
			c0.1,0,0.2,0,0.3,0c0.1,0,0.1,0,0.2-0.1c0,0,0.1-0.1,0.1-0.2s0-0.2,0-0.4s0-0.3,0-0.4s-0.1-0.2-0.1-0.2c-0.1,0-0.1-0.1-0.2-0.1
			c-0.1,0-0.2,0-0.4,0H27.5z"/>
		<path class="st12" d="M29.3,43.8v-2.1h0.6l0.4,1.5l0.4-1.5h0.7v2.1H31v-1.7l-0.4,1.7h-0.4l-0.4-1.7v1.7H29.3z"/>
		<path class="st12" d="M32.3,43.8v-2.1h0.4v2.1H32.3z"/>
		<path class="st12" d="M33.1,43.8v-2.1h0.4l0.9,1.4v-1.4h0.4v2.1h-0.4l-0.9-1.4v1.4H33.1z"/>
	</g>
	<g>
		<path class="st13" d="M36.5,9.5c1.3,2,1,4.4,1,6.7c-0.4,0.4-0.7,0.9-0.9,1.4c-0.1-0.5-0.1-0.9-0.3-1.3c-2.1-0.1-4.4-0.2-6.3-1.3
			c-1.2-0.8-2.2-2-3.1-3.1c-2.4,0.6-3.8,3.2-3.6,5.6c-0.3-0.5-0.6-0.9-1-1.2c0-2.3-0.3-4.8,1.1-6.8C26,5.8,34.3,5.9,36.5,9.5
			L36.5,9.5z"/>
	</g>
</g>
</svg>
