<?xml version="1.0" encoding="utf-8"?>
<!-- Generator: Adobe Illustrator 21.0.0, SVG Export Plug-In . SVG Version: 6.00 Build 0)  -->
<svg version="1.1" id="Layer_1" xmlns="http://www.w3.org/2000/svg" xmlns:xlink="http://www.w3.org/1999/xlink" x="0px" y="0px"
	 viewBox="0 0 32 16" style="enable-background:new 0 0 32 16;" xml:space="preserve">
<style type="text/css">
	.st0{fill:#000066;}
	.st1{fill:#FFFFFF;}
	.st2{fill:#CC0000;}
</style>
<g>
	<path class="st0" d="M0,0h32v16H0V0z"/>
	<path class="st1" d="M0,0v0.9l10.2,7.4h1.3V7.4L1.3,0H0z M11.5,0v0.9L1.3,8.3H0V7.4L10.2,0H11.5z"/>
	<path class="st1" d="M4.8,0v8.3h1.9V0H4.8L4.8,0z M0,2.8v2.8h11.5V2.8H0z"/>
	<path class="st2" d="M0,3.3V5h11.5V3.3H0z M5.2,0v8.3h1.2V0H5.2L5.2,0z M0,8.3l3.8-2.8h0.9L0.9,8.3H0z M0,0l3.8,2.8H3L0,0.6V0z
		 M6.8,2.8L10.7,0h0.9L7.7,2.8H6.8z M11.5,8.3L7.7,5.6h0.9l3,2.2L11.5,8.3L11.5,8.3z"/>
	<path class="st1" d="M16.2,12.4l-1.9,0.2l0.3,1.8l-1.3-1.3l-1.3,1.3l0.3-1.8l-1.9-0.2l1.6-1l-1-1.6l1.7,0.7l0.6-1.8l0.6,1.8
		l1.7-0.7l-1,1.6 M24.2,14.1l-0.4-0.7l0.8,0.3l0.2-0.8l0.2,0.8l0.8-0.3l-0.4,0.7l0.7,0.4l-0.8,0.1l0.1,0.8l-0.6-0.6l-0.6,0.6
		l0.1-0.8l-0.8-0.1 M24.2,2.2l-0.4-0.7l0.8,0.3L24.7,1L25,1.8l0.8-0.3l-0.4,0.7L26,2.6l-0.8,0.1l0.1,0.8l-0.6-0.6l-0.6,0.6l0.1-0.8
		l-0.8-0.1 M19.7,7l-0.4-0.7L20,6.6l0.2-0.8l0.2,0.8l0.8-0.3L20.8,7l0.7,0.4l-0.8,0.1l0.1,0.8l-0.6-0.6l-0.6,0.6l0.1-0.8L19,7.4
		 M28.2,5.8l-0.4-0.7l0.8,0.3l0.2-0.8L29,5.4l0.8-0.3l-0.4,0.7L30,6.2l-0.8,0.1l0.1,0.8l-0.6-0.6l-0.6,0.6l0.1-0.8l-0.8-0.1
		 M26.5,9.4l-0.4,0.3l0.1-0.5l-0.4-0.3l0.5,0l0.2-0.5l0.2,0.5l0.5,0l-0.4,0.3L27,9.6"/>
</g>
</svg>
