<?xml version="1.0" encoding="utf-8"?>
<!-- Generator: Adobe Illustrator 21.0.0, SVG Export Plug-In . SVG Version: 6.00 Build 0)  -->
<svg version="1.1" id="Layer_1" xmlns="http://www.w3.org/2000/svg" xmlns:xlink="http://www.w3.org/1999/xlink" x="0px" y="0px"
	 viewBox="0 0 60 60" style="enable-background:new 0 0 60 60;" xml:space="preserve">
<style type="text/css">
	.st0{fill:#8A8C8B;}
	.st1{fill:#B9B9BA;}
	.st2{fill:#E7E7E7;}
	.st3{fill:#D3D2D2;}
	.st4{fill-rule:evenodd;clip-rule:evenodd;fill:#A3A4A6;}
	.st5{fill-rule:evenodd;clip-rule:evenodd;fill:#CCCED0;}
	.st6{fill-rule:evenodd;clip-rule:evenodd;fill:#BABBBC;}
	.st7{fill-rule:evenodd;clip-rule:evenodd;fill:#A5A7A9;}
	.st8{fill-rule:evenodd;clip-rule:evenodd;fill:#929293;}
	.st9{fill-rule:evenodd;clip-rule:evenodd;fill:#F1F0F2;}
	.st10{fill-rule:evenodd;clip-rule:evenodd;fill:#D6D7D7;}
	.st11{fill-rule:evenodd;clip-rule:evenodd;fill:#D95459;}
	.st12{fill-rule:evenodd;clip-rule:evenodd;fill:#8A8C8B;}
	.st13{fill-rule:evenodd;clip-rule:evenodd;fill:#FFCD02;}
</style>
<g>
	<path class="st0" d="M47.3,9.2h-3.9c1.3,0,2.4,1,2.4,2.4v36.9c0,1.3-1,2.4-2.4,2.4h3.9c1.5,0,2.7-1.1,2.7-2.4V11.5
		C49.9,10.2,48.8,9.2,47.3,9.2z"/>
	<path class="st1" d="M45.7,48.5V11.5c0-1.3-1-2.4-2.4-2.4H12.7h-0.3c-1.3,0-2.4,1-2.4,2.4v36.9c0,1.3,1,2.4,2.4,2.4h0.3h30.7
		C44.7,50.8,45.7,49.8,45.7,48.5z"/>
</g>
<g>
	<path class="st2" d="M41.4,11.9H14.5c-1.1,0-2,0.9-2,2V46c0,1.1,0.9,2.1,2,2.1h26.9c1.1,0,2-0.9,2-2.1V14
		C43.4,12.9,42.5,11.9,41.4,11.9z"/>
	<path class="st3" d="M41.4,11.3H14.5c-1.5,0-2.7,1.2-2.7,2.7V46c0,1.5,1.2,2.7,2.7,2.7h26.9c1.5,0,2.7-1.2,2.7-2.7V14
		C44,12.5,42.8,11.3,41.4,11.3z M43.4,46c0,1.1-0.9,2.1-2,2.1H14.5c-1.1,0-2-0.9-2-2.1V14c0-1.1,0.9-2,2-2h26.9c1.1,0,2,0.9,2,2V46z
		"/>
</g>
<path class="st4" d="M43.4,50.8L43.4,50.8h-6.7l-2.2-2.1h6.9c1.5,0,2.7-1.2,2.7-2.7V32.7l1.7,1.5v14.2c0,0,0,0.1,0,0.1
	c0,0,0,0.1,0,0.1c0,0,0,0.1,0,0.1c0,0,0,0.1,0,0.1v0.1v0.1c0,0,0,0,0,0.1l0,0.1V49c0,0,0,0,0,0.1s0,0,0,0.1l0,0.1v0.1c0,0,0,0,0,0.1
	l0,0l0,0.1l0,0.1v0c0,0,0,0.1,0,0.1c0,0,0,0,0,0.1l0,0.1l0,0.1l0,0l0,0.1l0,0l0,0.1l-0.1,0l0,0l0,0.1l0,0.1l0,0l0,0.1l-0.1,0l0,0.1
	l-0.1,0l0,0.1l0,0l0,0l-0.1,0l0,0l0,0.1l0,0c0,0-0.1,0-0.1,0l0,0c0,0,0,0-0.1,0l0,0l0,0l0,0l-0.1,0l0,0c0,0,0,0-0.1,0l0,0l0,0l0,0
	c0,0,0,0-0.1,0.1l0,0l-0.1,0l0,0h-0.1l0,0l0,0l0,0l-0.1,0l0,0c0,0,0,0-0.1,0l0,0c0,0,0,0-0.1,0l0,0l-0.1,0l0,0c0,0,0,0-0.1,0l0,0
	c0,0,0,0-0.1,0l0,0H44l0,0c0,0,0,0-0.1,0l0,0h-0.1l0,0c0,0,0,0-0.1,0l0,0h-0.1l0,0c0,0,0,0-0.1,0l0,0h-0.1l0,0h-0.1l0,0
	c0,0,0,0-0.1,0l0,0c0,0-0.1,0-0.1,0l0,0L43.4,50.8L43.4,50.8C43.4,50.8,43.4,50.8,43.4,50.8L43.4,50.8z"/>
<path class="st5" d="M41.4,48.1h-7.6L22,37.2l12.5-13l8.9,7.9V46C43.4,47.2,42.5,48.1,41.4,48.1L41.4,48.1z"/>
<path class="st6" d="M41.4,48.7h-6.9l-0.7-0.6h7.6c1.1,0,2-0.9,2-2.1V32.2l0.6,0.6V46C44,47.5,42.8,48.7,41.4,48.7L41.4,48.7z"/>
<path class="st7" d="M44.3,16.8c0,0.4-0.3,0.7-0.7,0.7h-3.6c-0.4,0-0.7-0.3-0.7-0.7s0.3-0.7,0.7-0.7h3.6
	C43.9,16.1,44.3,16.5,44.3,16.8L44.3,16.8z"/>
<path class="st7" d="M44.3,19c0,0.4-0.3,0.7-0.7,0.7h-3.6c-0.4,0-0.7-0.3-0.7-0.7s0.3-0.7,0.7-0.7h3.6C43.9,18.3,44.3,18.6,44.3,19
	L44.3,19z"/>
<path class="st7" d="M44.3,41.8c0,0.4-0.3,0.7-0.7,0.7h-3.6c-0.4,0-0.7-0.3-0.7-0.7s0.3-0.7,0.7-0.7h3.6
	C43.9,41.1,44.3,41.4,44.3,41.8L44.3,41.8z"/>
<path class="st7" d="M44.3,43.9c0,0.4-0.3,0.7-0.7,0.7h-3.6c-0.4,0-0.7-0.3-0.7-0.7s0.3-0.7,0.7-0.7h3.6
	C43.9,43.2,44.3,43.5,44.3,43.9L44.3,43.9z"/>
<path class="st8" d="M34.3,35.4l-5-5l5-5c0.4-0.4,0.5-1.1,0.1-1.5c-0.4-0.4-1-0.3-1.5,0.1l-5,5l-5-5c-0.4-0.4-1.1-0.5-1.5-0.1
	c-0.4,0.4-0.3,1,0.1,1.5l5,5l-5,5c-0.4,0.4-0.5,1.1-0.1,1.5c0.4,0.4,1,0.3,1.5-0.1l5-5l5,5c0.4,0.4,1.1,0.5,1.5,0.1
	C34.8,36.5,34.7,35.9,34.3,35.4z"/>
<path class="st9" d="M30.6,33.1c-1.5,1.5-3.9,1.5-5.3,0c-1.5-1.5-1.5-3.9,0-5.3c1.4-1.5,3.9-1.5,5.3,0C32,29.2,32.1,31.6,30.6,33.1
	L30.6,33.1z"/>
<path class="st10" d="M29.1,31.6c-0.7,0.7-1.7,0.7-2.4,0c-0.6-0.7-0.7-1.7,0-2.4c0.7-0.7,1.7-0.7,2.3,0S29.7,31,29.1,31.6L29.1,31.6
	z"/>
<path class="st11" d="M30,30.5c0,1.1-1,2-2.1,2c-1.1,0-2-1-2-2.1c0-1.1,0.9-2,2.1-2C29.1,28.4,30,29.3,30,30.5L30,30.5z"/>
<path class="st12" d="M30,18.3c0,1.1-0.9,2-2.1,2c-1.1,0-2-0.9-2-2c0-1.1,0.9-2,2-2C29,16.2,30,17.1,30,18.3L30,18.3z"/>
<path class="st13" d="M28.9,18.3c0,0.6-0.5,1-1,1c-0.5,0-1-0.5-1-1s0.5-1,1-1C28.5,17.3,28.9,17.7,28.9,18.3L28.9,18.3z"/>
</svg>
