<?xml version="1.0" encoding="utf-8"?>
<!-- Generator: Adobe Illustrator 21.0.0, SVG Export Plug-In . SVG Version: 6.00 Build 0)  -->
<svg version="1.1" id="Layer_1" xmlns="http://www.w3.org/2000/svg" xmlns:xlink="http://www.w3.org/1999/xlink" x="0px" y="0px"
	 viewBox="0 0 73.3 27.6" style="enable-background:new 0 0 73.3 27.6;" xml:space="preserve">
<style type="text/css">
	.st0{fill:#FFFFFF;}
</style>
<g>
	<polygon class="st0" points="1.2,4.5 6.1,4.5 6.1,16.8 8.7,16.8 8.7,4.5 13.7,4.5 13.7,2.3 1.2,2.3 	"/>
	<path class="st0" d="M56.5,14.6h-8.1V2.3H46v6.1c-1.4-2.2-3.9-3.7-6.8-3.7c-3.6,0-6.6,2.3-7.7,5.5c-0.5-0.6-1.1-1.1-1.8-1.4
		c0.5-0.7,0.8-1.5,0.8-2.5c0-2.3-1.8-4.1-4.1-4.1H19v0h-0.2v14.5H19h2.1h7.2c1.3,0,2.5-0.6,3.3-1.6c1,3.3,4.1,5.7,7.7,5.7
		c3,0,5.6-1.6,7-4.1H47h1.4h8.1V14.6z M28.5,6.4c0,1.1-0.9,2-2,2h-5.4v-4h5.4C27.6,4.4,28.5,5.3,28.5,6.4z M28.3,14.7h-7.2v-4h7.2
		c1.1,0,2,0.9,2,2S29.4,14.7,28.3,14.7z M39.2,18.4c-3.1,0-5.6-2.5-5.6-5.6s2.5-5.6,5.6-5.6c3.1,0,5.6,2.5,5.6,5.6
		C44.8,15.9,42.3,18.4,39.2,18.4z"/>
	<polygon class="st0" points="60.2,16.8 68.3,16.8 68.3,14.6 60.2,14.6 60.2,2.3 57.9,2.3 57.9,16.8 58.9,16.8 	"/>
	<polygon class="st0" points="69.8,16.8 70.8,16.8 72.1,16.8 72.1,2.3 69.8,2.3 	"/>
	<polygon class="st0" points="15.2,16.8 16.2,16.8 17.5,16.8 17.5,2.3 15.2,2.3 	"/>
	<path class="st0" d="M65.2,24.4c-0.2,0.3-0.5,0.4-1.3,0.4c-0.6,0-0.9,0-1.1-0.1c-0.2-0.1-0.3-0.4-0.3-0.9v-2h1c0.9,0,1,0,1.1,0.8
		h0.3v-2h-0.3c-0.1,0.7-0.2,0.8-1.1,0.8h-1V19c0-0.3,0-0.3,0.3-0.3h0.9c0.8,0,1,0.1,1.2,0.3c0.1,0.2,0.2,0.4,0.3,0.9l0.3,0
		c0-0.6-0.1-1.3-0.1-1.6h-4.7v0.3c0.8,0.1,0.9,0.1,0.9,1v4.2c0,0.9-0.1,0.9-1.1,1v0.3h5.1c0.1-0.3,0.3-1.4,0.4-1.7l-0.4,0
		C65.6,23.9,65.3,24.2,65.2,24.4z"/>
	<path class="st0" d="M71.8,18c-0.2,0.2-0.2,0.3-0.5,0.3h-4.2c-0.3,0-0.4,0-0.6-0.3h-0.2c0,0.6-0.1,1.3-0.1,1.9h0.3
		c0.1-0.5,0.2-0.8,0.3-0.9c0.1-0.2,0.4-0.3,1.2-0.3h0.7v5.2c0,0.8-0.1,0.9-1.1,1v0.3h3v-0.3c-1-0.1-1.1-0.2-1.1-1v-5.2h0.8
		c0.8,0,0.9,0.1,1.1,0.3c0.1,0.2,0.2,0.4,0.3,0.9l0.4,0c-0.1-0.6-0.1-1.3-0.1-1.8L71.8,18L71.8,18z"/>
	<path class="st0" d="M57.8,18.6c0.7,0,1,0.2,1.1,0.6c0,0.3,0.1,0.8,0.1,1.8v2.7h0l-4.4-5.4H53v0.3c0.5,0,0.8,0.1,1,0.4
		c0.2,0.3,0.2,0.3,0.2,1v2.3c0,1,0,1.5-0.1,1.8c-0.1,0.5-0.3,0.7-0.9,0.7v0.3h2.6v-0.3c-0.7,0-1-0.2-1-0.7c0-0.3,0-0.8,0-1.8v-2.6h0
		l4.4,5.5h0.3V21c0-1,0-1.5,0-1.8c0.1-0.4,0.3-0.6,0.9-0.6v-0.3h-2.6V18.6z"/>
	<path class="st0" d="M51.9,24.1c-0.3,0-0.6,0.3-0.6,0.6c0,0.4,0.3,0.6,0.6,0.6h0c0.3,0,0.6-0.2,0.6-0.6
		C52.5,24.3,52.3,24.1,51.9,24.1z"/>
</g>
</svg>
