<?xml version="1.0" encoding="utf-8"?>
<!-- Generator: Adobe Illustrator 21.0.0, SVG Export Plug-In . SVG Version: 6.00 Build 0)  -->
<svg version="1.1" id="Layer_1" xmlns="http://www.w3.org/2000/svg" xmlns:xlink="http://www.w3.org/1999/xlink" x="0px" y="0px"
	 viewBox="0 0 70 76" style="enable-background:new 0 0 70 76;" xml:space="preserve">
<style type="text/css">
	.st0{fill:#FEFEFE;}
	.st1{fill-rule:evenodd;clip-rule:evenodd;fill:#FEFEFE;}
</style>
<g>
	<path class="st0" d="M15.3,66.2v-4.5h1.4c0.4,0,0.8,0.1,1,0.3c0.2,0.2,0.3,0.5,0.3,1c0,0.4-0.1,0.8-0.3,1c-0.2,0.2-0.5,0.3-0.9,0.3
		h-0.6v1.9H15.3z M16.1,63.7h0.3c0.3,0,0.4-0.1,0.5-0.2c0.1-0.1,0.2-0.3,0.2-0.5c0-0.2,0-0.4-0.1-0.5s-0.3-0.1-0.5-0.1h-0.4V63.7z"
		/>
	<path class="st0" d="M18.8,66.2v-4.5h1.5c0.5,0,0.8,0.1,1,0.3c0.2,0.2,0.3,0.5,0.3,0.9c0,0.3-0.1,0.5-0.2,0.7
		c-0.1,0.2-0.3,0.3-0.5,0.3c0.4,0.1,0.6,0.4,0.6,1c0,0,0,0,0,0.1l0,0.6c0,0.2,0,0.3,0.1,0.4c0,0.1,0.1,0.2,0.2,0.3h-1
		c0-0.1,0-0.2-0.1-0.3s0-0.2,0-0.4l0-0.5v-0.1c0-0.3-0.1-0.4-0.2-0.5s-0.3-0.1-0.7-0.1h-0.3v2H18.8z M19.6,63.6H20
		c0.2,0,0.4,0,0.5-0.1c0.1-0.1,0.1-0.3,0.1-0.5c0-0.2-0.1-0.4-0.2-0.5c-0.1-0.1-0.3-0.1-0.6-0.1h-0.4V63.6z"/>
	<path class="st0" d="M22.1,63.9c0-0.5,0-0.9,0.1-1.1c0-0.3,0.1-0.5,0.2-0.6c0.1-0.2,0.3-0.3,0.5-0.4c0.2-0.1,0.4-0.1,0.7-0.1
		c0.3,0,0.5,0,0.7,0.1c0.2,0.1,0.3,0.2,0.5,0.4c0.1,0.1,0.2,0.4,0.2,0.6c0,0.3,0.1,0.7,0.1,1.1c0,0.5,0,0.8-0.1,1.1
		c0,0.3-0.1,0.5-0.2,0.6c-0.1,0.2-0.3,0.3-0.5,0.4c-0.2,0.1-0.4,0.1-0.7,0.1c-0.3,0-0.5,0-0.7-0.1c-0.2-0.1-0.3-0.2-0.5-0.4
		c-0.1-0.1-0.2-0.4-0.2-0.6C22.1,64.8,22.1,64.4,22.1,63.9z M23,63.9c0,0.7,0,1.2,0.1,1.4c0.1,0.2,0.2,0.3,0.5,0.3
		c0.2,0,0.4-0.1,0.5-0.3c0.1-0.2,0.1-0.7,0.1-1.4c0-0.7,0-1.2-0.1-1.4c-0.1-0.2-0.2-0.3-0.5-0.3s-0.4,0.1-0.5,0.3
		C23,62.7,23,63.2,23,63.9z"/>
	<path class="st0" d="M25.7,66.2v-4.5H28v0.7h-1.5v1.1h1.4v0.7h-1.4v2H25.7z"/>
	<path class="st0" d="M28.5,66.2v-4.5h2.3v0.7h-1.5v1h1.4v0.7h-1.4v1.2h1.5v0.8H28.5z"/>
	<path class="st0" d="M31.5,64.6h0.8v0.3c0,0.3,0,0.5,0.1,0.6s0.2,0.1,0.4,0.1c0.2,0,0.3,0,0.4-0.1c0.1-0.1,0.1-0.2,0.1-0.4
		c0-0.1,0-0.2-0.1-0.3c-0.1-0.1-0.2-0.2-0.4-0.4l-0.4-0.3c-0.4-0.3-0.6-0.5-0.7-0.6c-0.1-0.2-0.1-0.4-0.1-0.6c0-0.4,0.1-0.7,0.3-0.9
		s0.5-0.3,0.9-0.3c0.4,0,0.7,0.1,1,0.3c0.2,0.2,0.3,0.6,0.3,1c0,0,0,0.1,0,0.1s0,0,0,0.1h-0.8V63c0-0.2,0-0.4-0.1-0.5
		s-0.2-0.2-0.4-0.2c-0.1,0-0.2,0-0.3,0.1c-0.1,0.1-0.1,0.2-0.1,0.3c0,0.2,0.2,0.4,0.5,0.6l0,0l0.5,0.3c0.3,0.2,0.5,0.4,0.7,0.6
		s0.2,0.4,0.2,0.7c0,0.4-0.1,0.7-0.3,0.9c-0.2,0.2-0.6,0.3-1,0.3c-0.4,0-0.8-0.1-1-0.3s-0.3-0.6-0.3-1.1
		C31.5,64.8,31.5,64.7,31.5,64.6L31.5,64.6z"/>
	<path class="st0" d="M35,64.6h0.8v0.3c0,0.3,0,0.5,0.1,0.6s0.2,0.1,0.4,0.1c0.2,0,0.3,0,0.4-0.1c0.1-0.1,0.1-0.2,0.1-0.4
		c0-0.1,0-0.2-0.1-0.3s-0.2-0.2-0.4-0.4l-0.4-0.3c-0.4-0.3-0.6-0.5-0.7-0.6c-0.1-0.2-0.1-0.4-0.1-0.6c0-0.4,0.1-0.7,0.3-0.9
		s0.5-0.3,0.9-0.3c0.4,0,0.7,0.1,1,0.3c0.2,0.2,0.3,0.6,0.3,1c0,0,0,0.1,0,0.1s0,0,0,0.1h-0.8V63c0-0.2,0-0.4-0.1-0.5
		s-0.2-0.2-0.4-0.2c-0.1,0-0.2,0-0.3,0.1c-0.1,0.1-0.1,0.2-0.1,0.3c0,0.2,0.2,0.4,0.5,0.6l0,0l0.5,0.3c0.3,0.2,0.5,0.4,0.7,0.6
		s0.2,0.4,0.2,0.7c0,0.4-0.1,0.7-0.3,0.9c-0.2,0.2-0.6,0.3-1,0.3c-0.4,0-0.8-0.1-1-0.3S35,65.4,35,64.9C35,64.8,35,64.7,35,64.6
		L35,64.6z"/>
	<path class="st0" d="M38.5,66.2v-4.5h0.8v4.5H38.5z"/>
	<path class="st0" d="M40,63.9c0-0.5,0-0.9,0.1-1.1c0-0.3,0.1-0.5,0.2-0.6c0.1-0.2,0.3-0.3,0.5-0.4c0.2-0.1,0.4-0.1,0.7-0.1
		c0.3,0,0.5,0,0.7,0.1c0.2,0.1,0.3,0.2,0.5,0.4c0.1,0.1,0.2,0.4,0.2,0.6c0,0.3,0.1,0.7,0.1,1.1c0,0.5,0,0.8-0.1,1.1
		c0,0.3-0.1,0.5-0.2,0.6c-0.1,0.2-0.3,0.3-0.5,0.4c-0.2,0.1-0.4,0.1-0.7,0.1c-0.3,0-0.5,0-0.7-0.1c-0.2-0.1-0.3-0.2-0.5-0.4
		c-0.1-0.1-0.2-0.4-0.2-0.6C40,64.8,40,64.4,40,63.9z M40.8,63.9c0,0.7,0,1.2,0.1,1.4c0.1,0.2,0.2,0.3,0.5,0.3
		c0.2,0,0.4-0.1,0.5-0.3c0.1-0.2,0.1-0.7,0.1-1.4c0-0.7,0-1.2-0.1-1.4c-0.1-0.2-0.2-0.3-0.5-0.3S41,62.4,41,62.5
		C40.9,62.7,40.8,63.2,40.8,63.9z"/>
	<path class="st0" d="M43.5,66.2v-4.5h0.9l1.2,3.1l0-3.1h0.8v4.5h-0.9L44.3,63l0,3.1H43.5z"/>
	<path class="st0" d="M46.9,66.2l1-4.5h1.1l1,4.5h-0.9L49,65.1h-1l-0.2,1.1H46.9z M48.1,64.4h0.7l-0.4-1.9L48.1,64.4z"/>
	<path class="st0" d="M50.7,66.2v-4.5h0.8v3.7h1.5v0.8H50.7z"/>
	<rect x="14.6" y="59.6" class="st1" width="39" height="0.4"/>
	<path class="st0" d="M54.5,9.9c0.2,0,0.3,0,0.4,0.1c0.1,0.1,0.2,0.2,0.3,0.3c0.1,0.1,0.1,0.3,0.1,0.4s0,0.3-0.1,0.4
		c-0.1,0.1-0.2,0.2-0.3,0.3c-0.1,0.1-0.3,0.1-0.4,0.1c-0.2,0-0.3,0-0.4-0.1c-0.1-0.1-0.2-0.2-0.3-0.3c-0.1-0.1-0.1-0.3-0.1-0.4
		s0-0.3,0.1-0.4c0.1-0.1,0.2-0.3,0.3-0.3C54.2,10,54.3,9.9,54.5,9.9L54.5,9.9z M54.5,10.1c-0.1,0-0.2,0-0.4,0.1
		c-0.1,0.1-0.2,0.2-0.3,0.3c-0.1,0.1-0.1,0.2-0.1,0.4s0,0.2,0.1,0.4c0.1,0.1,0.2,0.2,0.3,0.3c0.1,0.1,0.2,0.1,0.4,0.1
		c0.1,0,0.2,0,0.4-0.1c0.1-0.1,0.2-0.2,0.3-0.3c0.1-0.1,0.1-0.2,0.1-0.4s0-0.2-0.1-0.4c-0.1-0.1-0.2-0.2-0.3-0.3
		C54.7,10.1,54.6,10.1,54.5,10.1L54.5,10.1z M54.1,11.3v-1h0.3c0.1,0,0.2,0,0.2,0c0.1,0,0.1,0,0.1,0.1c0,0,0,0.1,0,0.1
		c0,0.1,0,0.1-0.1,0.2c0,0.1-0.1,0.1-0.2,0.1c0,0,0.1,0,0.1,0c0,0,0.1,0.1,0.1,0.2l0.1,0.2h-0.2l-0.1-0.2c-0.1-0.1-0.1-0.2-0.2-0.2
		c0,0-0.1,0-0.1,0h-0.1v0.4H54.1z M54.3,10.8h0.2c0.1,0,0.2,0,0.2,0c0,0,0-0.1,0-0.1c0,0,0,0,0-0.1c0,0,0,0-0.1,0c0,0-0.1,0-0.2,0
		h-0.2V10.8z"/>
	<path class="st1" d="M30.2,38.8v10.4h3.2V38.8v-3.4c-3.1,0-6.2,0-9.3,0v3.4C26.1,38.8,28.2,38.8,30.2,38.8L30.2,38.8z M24.1,13
		L24.1,13c3.3,0,6.1,2.7,6.1,6.1V25h3.2V19c0-5.1-4.2-9.3-9.3-9.3l0,0c-5.1,0-9.3,4.2-9.3,9.3v28.6c0,5.1,4.2,9.3,9.3,9.3v-3.3
		c-3.3,0-6.1-2.7-6.1-6.1V19C18,15.7,20.8,13,24.1,13L24.1,13z"/>
	<polygon class="st1" points="53.4,56.3 43.9,28.5 53.5,9.7 49.8,9.7 38.6,31.8 38.6,9.7 35.3,9.7 35.3,49.2 38.6,49.2 38.6,39 
		41.9,32.5 49.9,56.3 	"/>
	<path class="st1" d="M25.2,50.3c0.3,0,0.5,0,0.8,0c0,0.9,0,1.9,0,2.8c0.6,0,1.2,0,1.9,0c0-0.9,0-1.9,0-2.8c0.3,0,0.5,0,0.8,0
		c0,2.2,0,4.4,0,6.7h-0.8c0-1,0-2.1,0-3.1c-0.6,0-1.2,0-1.9,0c0,1,0,2.1,0,3.1h-0.8C25.2,54.7,25.2,52.5,25.2,50.3L25.2,50.3z
		 M37.3,53.8c0.4-0.1,1-0.4,1.1-0.9c0-0.6,0-1.3,0-1.9c-0.1-0.5-0.7-0.7-1.2-0.7c-0.7,0-1.5,0-2.2,0c0,2.2,0,4.4,0,6.7h0.9
		c0-1,0-2.1,0-3.1c0.2,0,0.4,0,0.6,0.1c0.3,1,0.7,2,1.1,3h1C38.1,55.9,37.8,54.8,37.3,53.8L37.3,53.8z M35.8,53.2L35.8,53.2v-2.3h1
		c0.4,0,0.7,0.3,0.7,0.7v0.8c0,0.4-0.3,0.7-0.7,0.7H35.8z M31.5,50.3c-0.4,0-0.7,0-1.1,0c-0.5,2.2-1.1,4.4-1.6,6.7h1
		c0.1-0.6,0.2-1.2,0.4-1.8c0.4-0.1,0.9,0,1.4-0.1c0.2,0.6,0.3,1.3,0.5,1.9h1C32.7,54.7,32,52.5,31.5,50.3L31.5,50.3z M30.3,54.4
		L30.3,54.4l0.7-2.5l0.7,2.5H30.3z M33.3,50.3c0.3,0,0.5,0,0.8,0c0,2.2,0,4.4,0,6.7h-0.8C33.3,54.7,33.3,52.5,33.3,50.3L33.3,50.3z"
		/>
</g>
</svg>
