<?xml version="1.0" encoding="utf-8"?>
<!-- Generator: Adobe Illustrator 21.0.0, SVG Export Plug-In . SVG Version: 6.00 Build 0)  -->
<svg version="1.1" id="Layer_1" xmlns="http://www.w3.org/2000/svg" xmlns:xlink="http://www.w3.org/1999/xlink" x="0px" y="0px"
	 viewBox="0 0 60 60" style="enable-background:new 0 0 60 60;" xml:space="preserve">
<style type="text/css">
	.st0{fill:#ECF0F1;}
	.st1{fill:#BDC3C7;}
	.st2{fill:#D95459;}
	.st3{fill:#99ABD5;}
	.st4{fill:#B8C9F1;}
	.st5{fill-rule:evenodd;clip-rule:evenodd;fill:#7F8C8D;}
	.st6{fill-rule:evenodd;clip-rule:evenodd;fill:#95A5A6;}
	.st7{fill:#B88A4E;}
	.st8{fill-rule:evenodd;clip-rule:evenodd;fill:#DAB07E;}
	.st9{fill-rule:evenodd;clip-rule:evenodd;fill:#E1B785;}
	.st10{fill-rule:evenodd;clip-rule:evenodd;fill:#B88A4E;}
	.st11{fill-rule:evenodd;clip-rule:evenodd;fill:#B07F45;}
	.st12{fill-rule:evenodd;clip-rule:evenodd;fill:#FEFEFE;}
	.st13{fill:#808184;}
	.st14{fill:#47464E;}
</style>
<g>
	<path class="st0" d="M42.4,20.5c-3.9-2-7.9-3.9-11.8-5.9c-0.3-0.1-0.5-0.4-0.8-0.2c-4.8,2.4-9.6,4.8-14.4,7.2
		c-1.6,0.9-3.2,1.6-4.8,2.5c0,3.7,0,23,0,26.8h38.7c0-3.7,0-23,0-26.8c-0.6-0.4-1.3-0.7-1.9-1C45.7,22.3,44.1,21.4,42.4,20.5z
		 M34.8,25.4h-9.6V19h9.6V25.4z"/>
	<path class="st1" d="M30,13c-0.3,0.1-0.5,0.2-0.7,0.3c-6.2,3.1-12.4,6.2-18.6,9.3c0,0.5,0,1,0,1.5c1.6-0.9,3.2-1.6,4.8-2.5
		c4.8-2.4,9.6-4.8,14.4-7.2c0.3-0.2,0.5,0.1,0.8,0.2c3.9,2,7.9,3.9,11.8,5.9c1.7,0.8,3.3,1.7,5,2.6c0.7,0.3,1.3,0.6,1.9,1
		c0-0.5,0-1,0-1.5c-6.2-3.1-12.4-6.2-18.6-9.3C30.5,13.2,30.2,13.1,30,13z"/>
	<path class="st2" d="M34.9,11.6c-1.6-0.8-3.3-1.7-4.9-2.5c-0.2,0.1-0.3,0.1-0.5,0.2c-6.9,3.5-13.8,6.9-20.7,10.4
		c-0.1,0.4,0,0.7,0,1.1c0,0.9,0,1.8,0,2.7c0.6-0.3,1.2-0.6,1.9-0.9c6.2-3.1,12.4-6.2,18.6-9.3c0.2-0.1,0.5-0.3,0.7-0.3
		c0.2,0.1,0.5,0.2,0.7,0.3c6.2,3.1,12.4,6.2,18.6,9.3c0.7,0.3,1.2,0.7,1.9,0.9c0-1.3,0-2.6,0-3.8C45.8,17,40.4,14.3,34.9,11.6z"/>
	<rect x="25.2" y="19" class="st3" width="9.6" height="6.4"/>
</g>
<rect x="10.7" y="46.1" class="st4" width="38.7" height="4.7"/>
<path class="st5" d="M45.4,48.5H14.6v-2.4h30.9V48.5z M45.4,34.3H14.6V32h30.9V34.3z M14.6,39.1h30.9v-2.4H14.6V39.1z M45.4,43.8
	H14.6v-2.4h30.9V43.8z"/>
<path class="st6" d="M45.4,48.5H14.6v2.4h30.9V48.5z M45.4,29.6H14.6V32h30.9V29.6z M14.6,34.3h30.9v2.4H14.6V34.3z M45.4,39.1H14.6
	v2.4h30.9V39.1z M45.4,43.8H14.6v2.4h30.9V43.8z"/>
<path class="st7" d="M24.7,34.3h9.2h0.6h0.3h0.6V43h-1.5h-8.4c-0.3,0-0.5,0-0.8,0V34.3z"/>
<rect x="20.3" y="42.2" class="st8" width="9.2" height="8.7"/>
<path class="st9" d="M20.3,42.2c3,0,6.1,0,9.2,0c-0.8,6.1-3.9,8.8-9.2,8.7C20.3,48,20.3,45.1,20.3,42.2L20.3,42.2z"/>
<rect x="29.4" y="42.2" class="st10" width="1.5" height="8.7"/>
<rect x="30" y="42.2" class="st11" width="0.3" height="1.9"/>
<rect x="26.9" y="43.1" class="st12" width="1.9" height="1.7"/>
<path class="st13" d="M27.1,43.6h1.4v0.1h-1.4V43.6z M27.1,44.2h0.7v0.1h-0.7V44.2z M27.1,43.9h1.4V44h-1.4V43.9z"/>
<rect x="26.1" y="49.1" class="st12" width="2.7" height="0.8"/>
<rect x="26.3" y="49.3" class="st13" width="0.3" height="0.5"/>
<rect x="26.8" y="49.3" class="st13" width="0.6" height="0.5"/>
<rect x="27.6" y="49.3" class="st13" width="1" height="0.1"/>
<rect x="27.6" y="49.6" class="st13" width="0.6" height="0.1"/>
<path class="st14" d="M21.2,43.1C21.2,43.1,21.2,43.1,21.2,43.1L21.2,43.1c0.2,0.1,0.3,0.2,0.3,0.5c0,0,0-0.1-0.1-0.1
	c-0.1,0-0.1,0-0.1,0c0,0,0,0,0,0.1c0-0.1-0.1-0.1-0.1-0.1c0,0.2,0,0.3,0,0.5c0,0,0,0-0.1,0c0,0,0,0,0-0.1c0,0,0,0,0,0s0,0,0,0
	c0,0,0,0,0,0c0-0.2,0-0.3,0-0.5c-0.1,0-0.1,0.1-0.1,0.1c0,0,0-0.1-0.1-0.1c0,0-0.1,0-0.1,0c0,0,0,0,0,0.1
	C20.9,43.4,21.1,43.2,21.2,43.1L21.2,43.1L21.2,43.1z"/>
<path class="st14" d="M21.7,43.4c-0.1-0.1-0.1-0.1-0.1-0.2c0.3,0-0.1,0,0.5,0c0,0.1,0,0.2-0.1,0.3c-0.1,0.1-0.1,0.1-0.2,0.1
	c0,0.1,0,0.2,0,0.3c0,0,0.1,0,0.1,0c0,0,0,0,0,0.1c-0.1,0-0.1,0-0.2,0c0,0,0,0,0-0.1c0,0,0,0,0.1,0c0-0.1,0-0.2,0-0.3
	C21.8,43.6,21.8,43.5,21.7,43.4L21.7,43.4z"/>
<path class="st14" d="M22.3,43.9c0.2,0,0.4,0,0.5,0c0,0,0,0,0,0.1C22.7,44,22.5,44,22.3,43.9C22.3,44,22.3,43.9,22.3,43.9L22.3,43.9
	z"/>
<path class="st14" d="M22.5,43.2c0,0.1,0.1,0.2,0.1,0.3c-0.1,0-0.2,0-0.2,0C22.4,43.3,22.4,43.2,22.5,43.2L22.5,43.2z"/>
<path class="st14" d="M22.4,43.5c0.1,0,0.1,0,0.1,0c0,0.1,0,0.3,0,0.4c-0.1,0-0.1,0-0.1,0C22.4,43.7,22.4,43.6,22.4,43.5L22.4,43.5z
	"/>
<path class="st14" d="M22.7,43.2c0,0.1,0.1,0.2,0.1,0.3c-0.1,0-0.2,0-0.2,0C22.7,43.3,22.7,43.2,22.7,43.2L22.7,43.2z"/>
<path class="st14" d="M22.7,43.5c0.1,0,0.1,0,0.1,0c0,0.1,0,0.3,0,0.4c-0.1,0-0.1,0-0.1,0C22.7,43.7,22.7,43.6,22.7,43.5L22.7,43.5z
	"/>
<path class="st10" d="M28.4,49.8l-0.2-0.5l0,0.1 M28.2,49.3L28.2,49.3L28.2,49.3l-0.1-0.2 M25.8,42.2h3.6H30h0.3h0.5v8.7h-1.5h-0.7
	l-0.3-0.9l0-0.1l-0.1-0.4v0l-0.1-0.1l-0.1-0.2L28.1,49l-1.6-4.8l-0.1-0.1L25.8,42.2z"/>
<rect x="24.7" y="33.4" class="st8" width="9.2" height="8.7"/>
<path class="st9" d="M24.7,33.4c3.1,0,6.1,0,9.2,0c-0.8,6.1-3.9,8.8-9.2,8.7C24.7,39.2,24.7,36.3,24.7,33.4L24.7,33.4z"/>
<rect x="33.9" y="33.4" class="st10" width="1.5" height="8.7"/>
<rect x="34.5" y="33.4" class="st11" width="0.3" height="1.9"/>
<rect x="31.3" y="34.3" class="st12" width="1.9" height="1.7"/>
<path class="st13" d="M31.6,34.8H33v0.1h-1.4V34.8z M31.6,35.5h0.7v0.1h-0.7V35.5z M31.6,35.1H33v0.1h-1.4V35.1z"/>
<rect x="30.5" y="40.4" class="st12" width="2.7" height="0.8"/>
<rect x="30.8" y="40.5" class="st13" width="0.3" height="0.5"/>
<rect x="31.2" y="40.5" class="st13" width="0.6" height="0.5"/>
<rect x="32" y="40.5" class="st13" width="1" height="0.1"/>
<rect x="32" y="40.8" class="st13" width="0.6" height="0.1"/>
<path class="st14" d="M25.7,34.3L25.7,34.3L25.7,34.3c0.2,0.1,0.3,0.2,0.3,0.5c0,0,0-0.1,0-0.1c-0.1-0.1-0.1,0-0.2,0c0,0,0,0,0,0.1
	c0-0.1-0.1-0.1-0.1-0.1c0,0.2,0,0.3,0,0.5c0,0,0,0-0.1,0c0,0,0,0,0-0.1c0,0,0,0,0,0v0c0,0,0,0,0,0c0-0.1,0-0.3,0-0.5
	c0,0-0.1,0.1-0.1,0.1c0,0,0-0.1-0.1-0.1c-0.1-0.1-0.1,0-0.1,0c0,0,0,0,0,0.1C25.4,34.6,25.5,34.4,25.7,34.3L25.7,34.3L25.7,34.3z"/>
<path class="st14" d="M26.2,34.7c-0.1-0.1-0.1-0.1-0.1-0.2c0.3,0-0.1,0,0.5,0c0,0.1,0,0.2-0.1,0.3c0,0.1-0.1,0.1-0.1,0.1
	c0,0.1,0,0.2,0,0.3c0,0,0.1,0,0.1,0c0,0,0,0,0,0.1c-0.1,0-0.1,0-0.2,0c0,0,0,0,0-0.1c0,0,0.1,0,0.1,0c0-0.1,0-0.2,0-0.3
	C26.3,34.8,26.2,34.7,26.2,34.7L26.2,34.7z"/>
<path class="st14" d="M26.8,35.1c0.2,0,0.3,0,0.5,0c0,0,0,0.1,0,0.1C27.1,35.2,27,35.2,26.8,35.1C26.8,35.2,26.8,35.1,26.8,35.1
	L26.8,35.1z"/>
<path class="st14" d="M26.9,34.4c0.1,0.1,0.1,0.2,0.1,0.3c-0.1,0-0.1,0-0.2,0C26.9,34.5,26.9,34.5,26.9,34.4L26.9,34.4z"/>
<path class="st14" d="M26.9,34.7c0,0,0.1,0,0.1,0c0,0.1,0,0.3,0,0.4c-0.1,0-0.1,0-0.1,0C26.9,34.9,26.9,34.8,26.9,34.7L26.9,34.7z"
	/>
<path class="st14" d="M27.2,34.4c0.1,0.1,0.1,0.2,0.1,0.3c-0.1,0-0.1,0-0.2,0C27.1,34.5,27.2,34.5,27.2,34.4L27.2,34.4z"/>
<path class="st14" d="M27.1,34.7c0,0,0.1,0,0.1,0c0,0.1,0,0.3,0,0.4c-0.1,0-0.1,0-0.1,0C27.1,34.9,27.1,34.8,27.1,34.7L27.1,34.7z"
	/>
<rect x="29.1" y="42.2" class="st8" width="9.2" height="8.7"/>
<path class="st9" d="M29.1,42.2c3.1,0,6.1,0,9.2,0c-0.8,6.1-3.9,8.8-9.2,8.7C29.1,48,29.1,45.1,29.1,42.2L29.1,42.2z"/>
<rect x="38.3" y="42.2" class="st10" width="1.5" height="8.7"/>
<rect x="38.8" y="42.2" class="st11" width="0.3" height="1.9"/>
<rect x="35.7" y="43.1" class="st12" width="1.9" height="1.7"/>
<path class="st13" d="M36,43.6h1.4v0.1H36V43.6z M36,44.2h0.7v0.1H36V44.2z M36,43.9h1.4V44H36V43.9z"/>
<rect x="34.9" y="49.1" class="st12" width="2.7" height="0.8"/>
<rect x="35.1" y="49.3" class="st13" width="0.3" height="0.5"/>
<rect x="35.6" y="49.3" class="st13" width="0.6" height="0.5"/>
<rect x="36.4" y="49.3" class="st13" width="1" height="0.1"/>
<rect x="36.4" y="49.6" class="st13" width="0.6" height="0.1"/>
<path class="st14" d="M30.1,43.1L30.1,43.1L30.1,43.1c0.2,0.1,0.3,0.2,0.3,0.5c0,0,0-0.1-0.1-0.1c0,0-0.1,0-0.1,0c0,0,0,0,0,0.1
	c0-0.1,0-0.1-0.1-0.1c0,0.2,0,0.3,0,0.5c0,0-0.1,0-0.1,0c0,0,0,0,0-0.1c0,0,0,0,0,0v0c0,0,0,0,0,0c0-0.2,0-0.3,0-0.5
	c-0.1,0-0.1,0.1-0.1,0.1c0,0,0-0.1-0.1-0.1c-0.1,0-0.1,0-0.1,0c0,0,0,0,0,0.1C29.7,43.4,29.9,43.2,30.1,43.1L30.1,43.1L30.1,43.1z"
	/>
<path class="st14" d="M30.5,43.4c0-0.1-0.1-0.1-0.1-0.2c0.3,0-0.1,0,0.5,0c0,0.1,0,0.2-0.1,0.3c0,0.1-0.1,0.1-0.1,0.1
	c0,0.1,0,0.2,0,0.3c0,0,0,0,0.1,0c0,0,0,0,0,0.1c-0.1,0-0.1,0-0.2,0c0,0,0,0,0-0.1c0,0,0.1,0,0.1,0c0-0.1,0-0.2,0-0.3
	C30.7,43.6,30.6,43.5,30.5,43.4L30.5,43.4z"/>
<path class="st14" d="M31.2,43.9c0.2,0,0.3,0,0.5,0c0,0,0,0,0,0.1C31.5,44,31.3,44,31.2,43.9C31.2,44,31.2,43.9,31.2,43.9L31.2,43.9
	z"/>
<path class="st14" d="M31.3,43.2c0,0.1,0.1,0.2,0.1,0.3c-0.1,0-0.1,0-0.2,0C31.2,43.3,31.3,43.2,31.3,43.2L31.3,43.2z"/>
<path class="st14" d="M31.2,43.5c0.1,0,0.1,0,0.2,0c0,0.1,0,0.3,0,0.4c-0.1,0-0.1,0-0.2,0C31.2,43.7,31.2,43.6,31.2,43.5L31.2,43.5z
	"/>
<path class="st14" d="M31.6,43.2c0,0.1,0.1,0.2,0.1,0.3c-0.1,0-0.1,0-0.2,0C31.5,43.3,31.5,43.2,31.6,43.2L31.6,43.2z"/>
<path class="st14" d="M31.5,43.5c0.1,0,0.1,0,0.2,0c0,0.1,0,0.3,0,0.4c-0.1,0-0.1,0-0.2,0C31.5,43.7,31.5,43.6,31.5,43.5L31.5,43.5z
	"/>
</svg>
