<?xml version="1.0" encoding="utf-8"?>
<!-- Generator: Adobe Illustrator 21.0.0, SVG Export Plug-In . SVG Version: 6.00 Build 0)  -->
<svg version="1.1" id="Layer_1" xmlns="http://www.w3.org/2000/svg" xmlns:xlink="http://www.w3.org/1999/xlink" x="0px" y="0px"
	 viewBox="0 0 32 16" style="enable-background:new 0 0 32 16;" xml:space="preserve">
<style type="text/css">
	.st0{fill:none;}
	.st1{fill:#ED0000;}
	.st2{fill:#FFFFFF;}
	.st3{fill:#0050F0;}
</style>
<rect x="0" y="0" class="st0" width="23" height="16"/>
<path class="st1" d="M0,0h32v16H0L0,0z"/>
<path class="st2" d="M0,3.2h32v3.2H0L0,3.2z M0,9.6h32v3.2H0L0,9.6z"/>
<path class="st3" d="M0,0l14.8,8L0,16C0,16,0,0,0,0z"/>
<path class="st2" d="M6.5,10.2L4.9,9.1l-1.6,1.1l0.6-1.8L2.3,7.2l2,0l0.6-1.8l0.6,1.8l2,0L5.9,8.4L6.5,10.2L6.5,10.2z"/>
</svg>
