<?xml version="1.0" encoding="utf-8"?>
<!-- Generator: Adobe Illustrator 21.0.0, SVG Export Plug-In . SVG Version: 6.00 Build 0)  -->
<svg version="1.1" id="Layer_1" xmlns="http://www.w3.org/2000/svg" xmlns:xlink="http://www.w3.org/1999/xlink" x="0px" y="0px"
	 viewBox="0 0 60 60" style="enable-background:new 0 0 60 60;" xml:space="preserve">
<style type="text/css">
	.st0{fill:#F2A327;}
	.st1{fill:#FFC61B;}
	.st2{fill:#D46C25;}
</style>
<g>
	<path class="st0" d="M47.6,14.5C47.6,14.5,47.6,14.5,47.6,14.5l0.1-3.1c0-1.3-1-2.3-2.3-2.3H14.7c-1.3,0-2.3,1-2.3,2.3v3.1
		c0,0,0.1,0,0.1,0H47.6z"/>
	<path class="st1" d="M47.7,14.5C47.6,14.5,47.6,14.5,47.7,14.5l-35.2,0c0,0-0.1,0-0.1,0c-1.4,0-2.5,1.2-2.5,2.5v31.3
		c0,1.4,1.2,2.6,2.6,2.6h35.1c1.4,0,2.5-1.1,2.5-2.6V17C50.1,15.6,49,14.5,47.7,14.5z"/>
</g>
<path class="st2" d="M20.6,19.5L20.6,19.5c-0.9,0.3-1.4,1.4-1,2.2c0.2,0.4,0.5,0.9,1,0.9c0.4,3.1,2.3,5.9,5.1,7.3
	c1.8,1,3.9,1.2,6,0.9c2.2-0.4,4.3-1.6,5.8-3.3c1.2-1.3,1.9-3,2.1-4.8c0.7-0.3,1.2-1.1,1-2c-0.2-1-1.4-1.7-2.3-1.3
	c-0.9,0.3-1.4,1.5-0.9,2.4c0.2,0.4,0.6,0.7,0.9,0.9c-0.3,2.4-1.8,4.6-3.9,5.8c-1.8,1.1-3.9,1.4-6,1c-3.3-0.6-6.1-3.5-6.6-6.9
	c0.6-0.4,1.1-1,1-1.8C22.8,19.9,21.6,19.1,20.6,19.5L20.6,19.5z"/>
</svg>
