<?xml version="1.0" encoding="utf-8"?>
<!-- Generator: Adobe Illustrator 21.0.0, SVG Export Plug-In . SVG Version: 6.00 Build 0)  -->
<svg version="1.1" id="Layer_1" xmlns="http://www.w3.org/2000/svg" xmlns:xlink="http://www.w3.org/1999/xlink" x="0px" y="0px"
	 viewBox="0 0 60 60" style="enable-background:new 0 0 60 60;" xml:space="preserve">
<style type="text/css">
	.st0{fill-rule:evenodd;clip-rule:evenodd;fill:#456FD8;}
	.st1{fill:#456FD8;}
	.st2{fill:none;}
	.st3{fill:#6F8DD9;}
	.st4{fill:#375FC4;}
	.st5{fill:#FEFEFE;}
	.st6{fill:#FFA800;}
</style>
<g>
	<path class="st0" d="M12,9.1h36.7c1.4,0,2.6,1.1,2.6,2.6v36.7c0,1.4-1.1,2.6-2.6,2.6H12c-1.4,0-2.6-1.2-2.6-2.6V11.7
		C9.4,10.3,10.6,9.1,12,9.1L12,9.1z"/>
	<path class="st1" d="M48.6,17.1c-0.5,0.2-0.9,0.4-1.1,0.5l-0.3,0.1l-0.3,0.1L46.6,18l-0.1,0.1c0,0.2,0,0.4,0,0.6
		c0,0.3-0.1,0.6-0.2,0.9c-0.1,0.3-0.4,0.6-0.6,0.8c-0.1,0.2-0.3,0.3-0.5,0.4h0L44.8,21h0l-0.1,0h0c-0.1,0-0.3,0.1-0.4,0.1
		c-0.1,0-0.3,0-0.4,0c-0.1,0-0.2,0-0.3,0c0,0,0,0-0.1,0c-0.1,0.1-0.1,0.3-0.2,0.3c-0.1,0.1-0.2,0.3-0.3,0.6
		c-0.2,0.4-0.3,0.6-0.4,0.7c-0.1,0.2-0.2,0.4-0.3,0.6L42,23.7c-0.4,0.8-0.9,1.5-1.3,2.4v0l-0.1,0.2c-0.1,0.2-0.2,0.3-0.3,0.6
		C40.1,27,40,27.2,40,27.3c0.1,0.2,0.2,0.3,0.3,0.5c0.1,0.3,0.1,0.5,0.1,0.8c0,0.3-0.1,0.6-0.1,0.9c-0.1,0.3-0.2,0.5-0.4,0.8l0,0
		c-0.1,0.1-0.3,0.3-0.4,0.4c-0.2,0.1-0.3,0.2-0.5,0.3c-0.2,0.1-0.4,0.1-0.5,0.2c-0.2,0.1-0.4,0.1-0.6,0.1c-0.3,0-0.5,0-0.7-0.1
		c-0.2-0.1-0.3-0.1-0.5-0.2c-0.3,0.3-0.7,0.5-1.1,0.7h0l-0.2,0.1C33.9,32.7,33,33.4,32,34l-0.1,0.1l-0.7,0.5l-0.3,0.2
		c-0.3,0.2-0.5,0.3-0.8,0.5c0,0.1,0,0.2,0,0.3c0,0.2,0,0.3-0.1,0.5c-0.1,0.2-0.1,0.4-0.2,0.5c-0.1,0.2-0.2,0.3-0.3,0.5v0
		c-0.1,0.1-0.1,0.1-0.1,0.1c0,0.1-0.1,0.1-0.1,0.1c-0.3,0.2-0.5,0.4-0.8,0.5c-0.3,0.1-0.6,0.2-0.9,0.2c-0.3,0-0.6,0-0.9-0.1
		c-0.3-0.1-0.5-0.3-0.8-0.5c-0.1-0.1-0.1-0.1-0.1-0.1c0,0-0.1-0.1-0.1-0.1h0v0c-0.1-0.1-0.1-0.2-0.2-0.3c-0.1-0.1-0.1-0.2-0.1-0.3
		c-0.1-0.1-0.1-0.1-0.1-0.2v0l-0.2,0c-0.1,0-0.3-0.1-0.4-0.1c-0.4-0.1-0.9-0.1-1.3-0.2l-0.8-0.1c-0.3-0.1-0.6-0.1-1-0.2
		c-0.2-0.1-0.4-0.1-0.6-0.1c-0.1,0,0,0-0.6-0.1l-0.3,0l-0.3-0.1l-0.2,0c-0.2-0.1-0.4-0.1-0.4-0.1l-0.1,0l-0.3-0.1c-0.2,0,0,0-0.1,0
		l-0.3-0.1l-0.2,0h0c-0.1,0.1-0.1,0.1-0.2,0.2c0,0,0,0.1-0.1,0.1l0,0l-0.3,0.2c-0.1,0.1-0.3,0.2-0.4,0.3c-0.2,0.1-0.3,0.1-0.5,0.2h0
		h0h0c-0.2,0-0.4,0.1-0.5,0c-0.2,0-0.4,0-0.6-0.1c-0.1,0-0.3-0.1-0.5-0.1c-0.1,0-0.2-0.1-0.2-0.1c-0.3,0.2-0.5,0.3-0.8,0.5l-0.1,0
		c-0.3,0.2-0.5,0.3-0.8,0.5c-0.1,0.1-0.3,0.2-0.6,0.3l-0.3,0.2c-0.4,0.2-0.7,0.5-1.1,0.7l-0.1,0.1l0,0c-0.5,0.3-1,0.6-1.6,1v9.2
		c0,1.4,1.2,2.6,2.6,2.6h36.7c1.4,0,2.6-1.2,2.6-2.6V16c-0.4,0.2-0.9,0.4-1.4,0.6C49.3,16.8,48.9,17,48.6,17.1z"/>
	<g>
		<rect x="8.8" y="39.6" class="st2" width="0.6" height="5"/>
		<path class="st2" d="M39.9,27.2v-0.4C39.9,26.9,39.9,27,39.9,27.2L39.9,27.2z"/>
		<rect x="9.4" y="39.6" class="st2" width="4.4" height="5"/>
		<path class="st2" d="M9.4,45.8v2.5c0,1.4,1.2,2.6,2.6,2.6h1.9v-5.1H9.4z"/>
		<path class="st2" d="M13.9,34.1c0.3,0.1,0.6,0.1,0.9,0.1c0.1,0,0.2,0.1,0.3,0.1v4.1h5.1V32c0.2,0.1,0.5,0.1,0.7,0.1
			c0.2,0,0.3,0,0.5,0.1v6.2h5v-3.5c0.4,0,0.8-0.1,1.2-0.2v3.8h5v-5h-1.4c0.9-0.6,1.7-1.2,2.6-1.8v0.6h5v-7.5
			c0.3,0.2,0.7,0.3,1.1,0.3c0,0,0,0,0.1,0v1h5v-5h-5c0.2-0.4,4.5-0.8,4.7-1.2H45v-0.5l0.2-0.4c0.3-0.6,0.6-1.1,0.9-1.7v2.6h5.1v-5.1
			H50c0.3-0.3,0.5-0.7,0.6-1.2h0.6v-1.9c0-1.4-1.1-2.6-2.6-2.6H12c-1.4,0-2.6,1.1-2.6,2.6v26.8h4.4V34.1z M31.1,31.1l0.9-0.6
			l0.6-0.4v0.2l-1.8,1.1L31.1,31.1z M15.4,32.1c0.1-0.1,0.3-0.3,0.4-0.4c0.1,0,0.2,0.1,0.3,0.1c0.4,0.1,0.1,0,0.5,0.1
			c0.5,0.1,0.8,0.1,1.1,0.2c0.1,0,0.2,0,0.5,0.1l0.6,0.1h-3.5C15.3,32.2,15.4,32.1,15.4,32.1z"/>
		<rect x="46.1" y="33.4" class="st2" width="5.1" height="5"/>
		<rect x="39.9" y="27.2" class="st2" width="5" height="5.1"/>
		<rect x="46.1" y="27.2" class="st2" width="5.1" height="5.1"/>
		<rect x="46.1" y="39.6" class="st2" width="5.1" height="5"/>
		<path class="st2" d="M39.9,26v0.8C39.9,26.5,39.9,26.2,39.9,26z"/>
		<rect x="46.1" y="20.9" class="st2" width="5.1" height="5"/>
		<rect x="15" y="45.8" class="st2" width="5.1" height="5.1"/>
		<rect x="33.7" y="33.4" class="st2" width="5" height="5"/>
		<rect x="33.7" y="39.6" class="st2" width="5" height="5"/>
		<rect x="39.9" y="39.6" class="st2" width="5" height="5"/>
		<path class="st2" d="M46.1,45.8v5.1h2.5c1.4,0,2.6-1.2,2.6-2.6v-2.5H46.1z"/>
		<rect x="27.5" y="39.6" class="st2" width="5" height="5"/>
		<rect x="39.9" y="33.4" class="st2" width="5" height="5"/>
		<rect x="15" y="39.6" class="st2" width="5.1" height="5"/>
		<rect x="33.7" y="45.8" class="st2" width="5" height="5.1"/>
		<rect x="39.9" y="45.8" class="st2" width="5" height="5.1"/>
		<rect x="27.5" y="45.8" class="st2" width="5" height="5.1"/>
		<rect x="21.3" y="45.8" class="st2" width="5" height="5.1"/>
		<rect x="21.3" y="39.6" class="st2" width="5" height="5"/>
		<path class="st3" d="M50,14.7h1.2v-1.2h-0.6C50.5,14,50.3,14.4,50,14.7z"/>
		<polygon class="st3" points="32.5,30.1 31.9,30.5 31.1,31.1 30.7,31.3 32.5,30.3 		"/>
		<path class="st3" d="M51.2,45.8v-1.2h-5.1v-5h5.1v-1.2h-5.1v-5h5.1v-1.2h-5.1v-5.1h5.1V26h-5.1v-5h5.1v-1.2h-5.1v-2.6
			c-0.3,0.5-0.6,1.1-0.9,1.7L45,19.2v0.5h-0.3c-0.2,0.4-4.5,0.8-4.7,1.2h5v5h-5c0,0.3,0,0.5,0,0.8v0.4h5v5.1h-5v-5.1h-0.1
			c0-0.1,0-0.3,0.1-0.4V26v-1c0,0,0,0-0.1,0c-0.4,0-0.8-0.1-1.1-0.3v7.5h-5v-0.6c-0.9,0.6-1.8,1.2-2.6,1.8h1.4v5h-5v-3.8
			c-0.4,0.2-0.8,0.2-1.2,0.2v3.5h-5v-6.2c-0.1,0-0.3-0.1-0.5-0.1c-0.2-0.1-0.5-0.1-0.7-0.1v6.4H15v-4.1c-0.1,0-0.2,0-0.3-0.1
			c-0.3,0-0.6-0.1-0.9-0.1v4.3H9.4v1.2h4.4v5H9.4v1.2h4.4v5.1H15v-5.1h5.1v5.1h1.2v-5.1h5v5.1h1.2v-5.1h5v5.1h1.2v-5.1h5v5.1h1.2
			v-5.1h5v5.1h1.2v-5.1H51.2z M20.1,44.6H15v-5h5.1V44.6z M26.3,44.6h-5v-5h5V44.6z M32.5,44.6h-5v-5h5V44.6z M38.7,44.6h-5v-5h5
			V44.6z M38.7,38.4h-5v-5h5V38.4z M45,44.6h-5v-5h5V44.6z M45,38.4h-5v-5h5V38.4z"/>
		<path class="st3" d="M18.2,32.1c-0.3-0.1-0.5-0.1-0.5-0.1c-0.3-0.1-0.5-0.1-1.1-0.2c-0.3-0.1-0.1,0-0.5-0.1c-0.1,0-0.1,0-0.3-0.1
			c-0.1,0.1-0.3,0.3-0.4,0.4c-0.1,0-0.1,0.1-0.2,0.1h3.5L18.2,32.1z"/>
	</g>
	<path class="st1" d="M14.1,32.7c0.5-1.2,2.2-1.6,3.2-0.8c0.4,0.3,0.6,0.8,0.7,1.2c2.6,0.5,5.2,0.9,7.7,1.4c0.3-0.5,0.8-0.9,1.4-1
		c0.6-0.1,1.1,0.1,1.6,0.4c2.3-1.5,4.6-3.1,7-4.6c-0.1-0.7,0-1.4,0.5-1.9c0.5-0.5,1.2-0.7,1.8-0.6c1.3-2.4,2.7-4.8,4-7.1
		c-0.4-0.7-0.4-1.6,0.1-2.2c0.6-0.8,1.7-1,2.6-0.6c2.1-0.9,4.2-1.8,6.4-2.7v-2.3c0-1.4-1.1-2.6-2.6-2.6H12c-1.4,0-2.6,1.1-2.6,2.6
		v25.2c1.5-1,3-2,4.6-2.9C14,33.5,13.9,33,14.1,32.7z"/>
	<path class="st4" d="M47.2,17.1c-0.5,0.2-1,0.4-1.5,0.6c0.4,1.1-0.2,2.3-1.2,2.7c-0.5,0.1-0.9,0.1-1.4,0c-0.5,0.9-1,1.7-1.4,2.5
		c-0.5,0.9-1.1,1.9-1.6,2.8c-0.3,0.5-0.6,1-0.9,1.6c0.6,0.7,0.7,1.9,0.1,2.6c-0.4,0.5-1,0.8-1.6,0.8c-0.4,0-0.8-0.2-1.2-0.4
		c-0.5,0.4-1,0.7-1.5,1c-1.4,0.9-2.7,1.8-4.1,2.7c-0.5,0.3-0.9,0.6-1.4,0.9c0.1,0.7,0,1.3-0.4,1.8c-0.8,0.9-2.3,0.9-3.1,0
		c-0.2-0.3-0.4-0.7-0.5-1c-0.7-0.1-1.4-0.3-2.2-0.4c-1-0.2-2.1-0.4-3.2-0.6c-0.5-0.1-0.9-0.2-1.4-0.2c-0.3-0.1-0.6-0.1-0.9-0.2
		c-0.3,0.5-0.8,0.8-1.3,1c-0.6,0.1-1.2-0.1-1.7-0.4c-0.9,0.6-1.8,1.2-2.7,1.8c-0.8,0.5-1.7,1.1-2.6,1.6v0.7c0.7-0.4,1.2-0.8,1.6-1
		l0,0l0.1-0.1c0.4-0.2,0.7-0.5,1.1-0.7l0.3-0.2c0.3-0.2,0.5-0.3,0.6-0.3c0.3-0.2,0.5-0.3,0.8-0.5l0.1,0c0.3-0.2,0.5-0.3,0.8-0.5
		c0.1,0.1,0.1,0.1,0.2,0.1c0.1,0.1,0.3,0.1,0.5,0.1c0.2,0,0.4,0.1,0.6,0.1c0.2,0,0.4,0,0.5,0h0h0h0c0.2-0.1,0.3-0.1,0.5-0.2
		c0.1-0.1,0.3-0.2,0.4-0.3l0.3-0.2l0,0c0,0,0.1,0,0.1-0.1c0.1-0.1,0.1-0.1,0.2-0.2h0l0.2,0l0.3,0.1c0.2,0,0,0,0.1,0l0.3,0.1l0.1,0
		c0.1,0,0.3,0,0.4,0.1l0.2,0l0.3,0.1l0.3,0c0.5,0.1,0.4,0.1,0.6,0.1c0.2,0,0.4,0.1,0.6,0.1c0.3,0.1,0.7,0.1,1,0.2l0.8,0.1
		c0.4,0.1,0.9,0.1,1.3,0.2c0.1,0,0.3,0.1,0.4,0.1l0.2,0v0c0,0.1,0.1,0.2,0.1,0.2c0,0.1,0.1,0.2,0.1,0.3c0.1,0.1,0.1,0.2,0.2,0.3v0h0
		c0,0.1,0.1,0.1,0.1,0.1c0.1,0.1,0.1,0.1,0.1,0.1c0.3,0.2,0.5,0.3,0.8,0.5c0.3,0.1,0.6,0.1,0.9,0.1c0.3,0,0.6-0.1,0.9-0.2
		c0.3-0.1,0.6-0.3,0.8-0.5c0,0,0.1-0.1,0.1-0.1c0.1,0,0.1-0.1,0.1-0.1v0c0.1-0.2,0.2-0.3,0.3-0.5c0.1-0.2,0.1-0.4,0.2-0.5
		c0-0.2,0.1-0.4,0.1-0.5c0-0.1,0-0.2,0-0.3c0.3-0.2,0.5-0.3,0.8-0.5l0.3-0.2l0.7-0.5L32,34c1-0.7,1.9-1.3,3.3-2.2l0.2-0.1h0
		c0.4-0.3,0.7-0.5,1.1-0.7c0.1,0.1,0.3,0.1,0.5,0.2c0.2,0.1,0.5,0.1,0.7,0.1c0.2,0,0.4,0,0.6-0.1c0.2,0,0.4-0.1,0.5-0.2
		c0.2-0.1,0.3-0.2,0.5-0.3c0.1-0.1,0.3-0.3,0.4-0.4l0,0c0.2-0.2,0.3-0.5,0.4-0.8c0.1-0.3,0.1-0.6,0.1-0.9c0-0.3-0.1-0.5-0.1-0.8
		c-0.1-0.2-0.1-0.4-0.3-0.5c0.1-0.1,0.2-0.3,0.3-0.4c0.1-0.3,0.3-0.5,0.3-0.6l0.1-0.2v0c0.5-0.8,0.9-1.6,1.3-2.4l0.3-0.5
		c0.1-0.2,0.2-0.4,0.3-0.6c0-0.1,0.1-0.3,0.4-0.7c0.1-0.3,0.3-0.5,0.3-0.6c0.1-0.1,0.1-0.2,0.2-0.3c0,0,0.1,0,0.1,0
		c0.1,0,0.2,0,0.3,0c0.1,0,0.3,0,0.4,0c0.1,0,0.3,0,0.4-0.1h0l0.1,0h0l0.3-0.1h0c0.2-0.1,0.4-0.3,0.5-0.4c0.3-0.2,0.5-0.5,0.6-0.8
		c0.1-0.3,0.2-0.6,0.2-0.9c0-0.2,0-0.4,0-0.6l0.1-0.1l0.3-0.1l0.3-0.1l0.3-0.1c0.2-0.1,0.6-0.3,1.1-0.5c0.4-0.2,0.8-0.3,1.2-0.5
		c0.5-0.2,1-0.4,1.4-0.6v-0.6C49.9,16,48.6,16.5,47.2,17.1z"/>
	<path class="st5" d="M10.5,37.1L10.5,37.1l0.1-0.1c0.4-0.2,0.7-0.5,1.1-0.7c0.1-0.1,0.3-0.2,0.7-0.5c0.3-0.2,0.6-0.4,0.9-0.6l0.1,0
		c0.4-0.2,0.7-0.5,1.1-0.7l0.1-0.1l0.2-0.1l0.2,0.1l0.1,0.1c0.1,0.1,0.2,0.1,0.3,0.2c0.1,0,0.2,0.1,0.3,0.1c0.1,0,0.2,0,0.3,0
		c0.1,0,0.2,0,0.3,0c0.1,0,0.2-0.1,0.3-0.1c0.1-0.1,0.2-0.1,0.3-0.2c0.1-0.1,0.2-0.1,0.3-0.2c0.1-0.1,0.1-0.2,0.2-0.3l0.1-0.1
		l0.1-0.2l0.2,0l0.1,0l0.6,0.1c-0.1,0-0.1,0,0,0h0l0.4,0.1c0,0,0.2,0,0.4,0.1c0.3,0,0.4,0.1,0.5,0.1l0.3,0l0.2,0.1
		c0.2,0,0.1,0,0.6,0.1l0.9,0.1c0.3,0,0.5,0.1,0.8,0.1c0.1,0,0.3,0.1,1,0.2c0.4,0.1,0.9,0.1,1.3,0.2c0.3,0,0.5,0.1,0.9,0.1l0.1,0
		l0.2,0l0.1,0.2l0.1,0.1c0,0.1,0.1,0.2,0.1,0.3c0,0.1,0.1,0.2,0.1,0.2c0.1,0.1,0.1,0.1,0.1,0.2c0,0.1,0.1,0.1,0.1,0.2
		c0,0,0,0.1,0.1,0.1c0,0,0.1,0.1,0.1,0.1l0,0c0.1,0.1,0.3,0.2,0.4,0.2c0.2,0.1,0.4,0.1,0.6,0.1c0.2,0,0.4,0,0.5-0.1
		c0.2-0.1,0.3-0.2,0.5-0.3c0,0,0.1,0,0.1-0.1c0,0,0.1-0.1,0.1-0.1c0.1-0.1,0.1-0.2,0.2-0.3c0-0.1,0.1-0.2,0.1-0.3c0-0.1,0-0.3,0-0.4
		c0-0.1,0-0.3,0-0.4l0-0.1l0-0.2l0.2-0.1l0.1-0.1c0.1-0.1,0.3-0.2,0.5-0.3c0.3-0.2,0.4-0.3,0.5-0.4l0.4-0.2l0.7-0.5l0.1-0.1
		c1.2-0.8,2.4-1.6,3.3-2.2l0.1-0.1h0c0.5-0.3,0.9-0.6,1.4-0.9l0.1-0.1l0.2-0.1l0.2,0.1l0.1,0.1l0.1,0c0.2,0.1,0.3,0.2,0.5,0.2
		s0.3,0.1,0.4,0.1h0c0.1,0,0.2,0,0.3,0c0.1,0,0.2-0.1,0.3-0.1c0.1-0.1,0.2-0.1,0.3-0.2c0.1-0.1,0.2-0.2,0.3-0.3
		c0.1-0.1,0.2-0.3,0.2-0.4c0.1-0.2,0.1-0.3,0.1-0.5c0-0.2,0-0.3-0.1-0.5c-0.1-0.2-0.1-0.3-0.3-0.5l-0.1-0.1l-0.1-0.2l0.1-0.2
		l0.1-0.1c0.2-0.4,0.5-0.9,0.8-1.4l0.1-0.1l0.1-0.1c0.2-0.4,0.4-0.8,0.7-1.2c0.1-0.3,0.4-0.7,0.7-1.2l0.3-0.5v0
		c0.1-0.2,0.3-0.4,0.4-0.6c0.2-0.3,0.3-0.5,0.3-0.6c0.1-0.1,0.2-0.3,0.3-0.6c0.1-0.1,0.2-0.4,0.4-0.6l0.1-0.1l0.1-0.2l0.2,0.1l0.1,0
		c0.1,0,0.2,0,0.3,0.1c0.1,0,0.2,0,0.3,0s0.2,0,0.3,0c0.1,0,0.1,0,0.2,0c0.2-0.1,0.3-0.2,0.5-0.3c0.1-0.1,0.3-0.3,0.3-0.5
		c0.1-0.2,0.1-0.4,0.1-0.6c0-0.2,0-0.4-0.1-0.6l-0.1-0.3l-0.1-0.2l0.3-0.1l0.2-0.1l0.4-0.1l0.5-0.2l0.3-0.1l0.3-0.1l0.3-0.1
		c0.5-0.2,0.7-0.3,0.9-0.4c0.4-0.1,0.7-0.3,1.1-0.5c0.5-0.2,1.1-0.5,1.9-0.8v-0.9c-2.1,0.9-4.2,1.8-6.4,2.7c-0.9-0.4-2-0.2-2.6,0.6
		c-0.5,0.7-0.5,1.6-0.1,2.2c-1.3,2.4-2.7,4.8-4,7.1c-0.7-0.1-1.4,0.1-1.8,0.6c-0.5,0.5-0.6,1.2-0.5,1.9c-2.3,1.6-4.6,3.1-7,4.6
		c-0.5-0.3-1-0.5-1.6-0.4c-0.6,0.1-1.1,0.5-1.4,1c-2.6-0.5-5.2-0.9-7.7-1.4c-0.1-0.5-0.3-0.9-0.7-1.2c-1-0.9-2.7-0.4-3.2,0.8
		C13.9,33,14,33.5,14,33.9c-1.5,1-3,2-4.6,2.9v0.9C9.8,37.6,10.1,37.4,10.5,37.1z"/>
	<path class="st5" d="M18.4,34C18.4,34,18.3,34,18.4,34L18.4,34z"/>
	<path class="st5" d="M49.3,15.6c-0.4,0.1-0.7,0.3-1.1,0.5c-0.2,0.1-0.5,0.2-0.9,0.4L47,16.6l-0.3,0.1l-0.3,0.1l-0.5,0.2l-0.4,0.1
		l-0.2,0.1l-0.3,0.1l0.1,0.2l0.1,0.3c0.1,0.2,0.1,0.4,0.1,0.6c0,0.2-0.1,0.4-0.1,0.6c-0.1,0.2-0.2,0.4-0.3,0.5
		c-0.1,0.1-0.3,0.2-0.5,0.3c-0.1,0-0.1,0-0.2,0c-0.1,0-0.2,0-0.3,0s-0.2,0-0.3,0c-0.1,0-0.2,0-0.3-0.1l-0.1,0l-0.2-0.1L42.8,20
		l-0.1,0.1c-0.2,0.3-0.3,0.5-0.4,0.6c-0.1,0.3-0.3,0.5-0.3,0.6c0,0.1-0.1,0.3-0.3,0.6c-0.1,0.2-0.3,0.4-0.4,0.6v0L41,23.2
		c-0.3,0.5-0.5,0.9-0.7,1.2c-0.2,0.4-0.5,0.8-0.7,1.2l-0.1,0.1l-0.1,0.1c-0.3,0.5-0.6,0.9-0.8,1.4l-0.1,0.1l-0.1,0.2l0.1,0.2
		l0.1,0.1c0.1,0.1,0.2,0.3,0.3,0.5c0.1,0.2,0.1,0.3,0.1,0.5c0,0.2,0,0.3-0.1,0.5c-0.1,0.1-0.1,0.3-0.2,0.4c-0.1,0.1-0.2,0.2-0.3,0.3
		c-0.1,0.1-0.2,0.1-0.3,0.2c-0.1,0.1-0.2,0.1-0.3,0.1c-0.1,0-0.2,0-0.3,0h0c-0.1,0-0.3,0-0.4-0.1S37,30,36.8,29.9l-0.1,0l-0.1-0.1
		l-0.2-0.1l-0.2,0.1l-0.1,0.1c-0.5,0.3-0.9,0.6-1.4,0.9h0l-0.1,0.1c-0.9,0.6-2.1,1.4-3.3,2.2l-0.1,0.1l-0.7,0.5l-0.4,0.2
		c-0.1,0.1-0.2,0.2-0.5,0.4c-0.2,0.1-0.4,0.2-0.5,0.3l-0.1,0.1l-0.2,0.1l0,0.2l0,0.1c0,0.1,0,0.3,0,0.4c0,0.1,0,0.3,0,0.4
		c0,0.1-0.1,0.2-0.1,0.3c-0.1,0.1-0.1,0.2-0.2,0.3c0,0-0.1,0.1-0.1,0.1c0,0,0,0-0.1,0.1c-0.1,0.1-0.3,0.2-0.5,0.3
		c-0.2,0.1-0.4,0.1-0.5,0.1c-0.2,0-0.4,0-0.6-0.1c-0.1-0.1-0.3-0.1-0.4-0.2l0,0c0,0-0.1-0.1-0.1-0.1c0,0,0,0-0.1-0.1
		c0-0.1-0.1-0.1-0.1-0.2c0-0.1-0.1-0.1-0.1-0.2c0-0.1-0.1-0.1-0.1-0.2c0-0.1-0.1-0.2-0.1-0.3L26,35.5l-0.1-0.2l-0.2,0l-0.1,0
		c-0.4-0.1-0.7-0.1-0.9-0.1c-0.4-0.1-0.9-0.2-1.3-0.2c-0.7-0.1-0.9-0.2-1-0.2c-0.3-0.1-0.5-0.1-0.8-0.1l-0.9-0.1
		c-0.5-0.1-0.4-0.1-0.6-0.1L20,34.3l-0.3,0c-0.1,0-0.2-0.1-0.5-0.1c-0.2-0.1-0.4-0.1-0.4-0.1L18.5,34h0l-0.6-0.1l-0.1,0l-0.2,0
		L17.4,34l-0.1,0.1c-0.1,0.1-0.1,0.2-0.2,0.3c-0.1,0.1-0.2,0.2-0.3,0.2c-0.1,0.1-0.2,0.1-0.3,0.2c-0.1,0-0.2,0.1-0.3,0.1
		c-0.1,0-0.2,0-0.3,0c-0.1,0-0.2,0-0.3,0c-0.1,0-0.2-0.1-0.3-0.1c-0.1-0.1-0.2-0.1-0.3-0.2l-0.1-0.1l-0.2-0.1l-0.2,0.1l-0.1,0.1
		c-0.3,0.2-0.7,0.5-1.1,0.7l-0.1,0c-0.3,0.2-0.6,0.4-0.9,0.6c-0.4,0.3-0.7,0.4-0.7,0.5c-0.4,0.2-0.7,0.5-1.1,0.7l-0.1,0.1h0
		c-0.4,0.2-0.7,0.5-1,0.7v0.7c0.9-0.5,1.7-1.1,2.6-1.6c0.9-0.6,1.8-1.2,2.7-1.8c0.5,0.3,1.1,0.5,1.7,0.4c0.6-0.2,1-0.5,1.3-1
		c0.3,0,0.6,0.1,0.9,0.2c0.5,0.1,0.9,0.1,1.4,0.2c1,0.2,2.1,0.4,3.2,0.6c0.7,0.1,1.5,0.3,2.2,0.4c0.1,0.3,0.3,0.7,0.5,1
		c0.8,0.9,2.3,0.9,3.1,0c0.4-0.5,0.5-1.2,0.4-1.8c0.5-0.3,0.9-0.6,1.4-0.9c1.4-0.9,2.7-1.8,4.1-2.7c0.5-0.3,1-0.7,1.5-1
		c0.4,0.2,0.8,0.4,1.2,0.4c0.7,0,1.2-0.3,1.6-0.8c0.6-0.8,0.5-1.9-0.1-2.6c0.3-0.5,0.6-1,0.9-1.6c0.5-0.9,1-1.9,1.6-2.8
		c0.5-0.9,0.9-1.7,1.4-2.5c0.4,0.1,0.9,0.1,1.4,0c1-0.4,1.6-1.6,1.2-2.7c0.5-0.2,1-0.4,1.5-0.6c1.3-0.6,2.6-1.1,3.9-1.7v-0.6
		C50.4,15.1,49.9,15.4,49.3,15.6z"/>
	<g>
		<path class="st6" d="M30.7,21.4v2.2c0.3-0.1,0.5-0.2,0.7-0.4c0.2-0.2,0.3-0.5,0.3-0.7c0-0.3-0.1-0.5-0.2-0.7
			C31.3,21.6,31.1,21.5,30.7,21.4z"/>
		<path class="st6" d="M29.4,17.9c-0.1,0.2-0.2,0.4-0.2,0.6c0,0.2,0.1,0.4,0.2,0.6c0.1,0.2,0.3,0.3,0.5,0.4v-2
			C29.7,17.6,29.5,17.7,29.4,17.9z"/>
		<path class="st6" d="M25.3,13.7v11.7l5,3.8l5.1-3.8V13.7H25.3z M32.5,24c-0.4,0.5-1,0.8-1.8,0.9v1h-0.8v-1
			c-0.7-0.1-1.2-0.3-1.6-0.7c-0.4-0.4-0.7-1-0.8-1.7l1.5-0.2c0.1,0.3,0.2,0.6,0.3,0.8c0.2,0.2,0.4,0.4,0.6,0.5v-2.4
			c-0.7-0.2-1.3-0.5-1.6-1c-0.3-0.4-0.5-1-0.5-1.6c0-0.7,0.2-1.2,0.6-1.6c0.4-0.4,0.9-0.7,1.6-0.7v-0.6h0.8v0.6
			c0.6,0.1,1.1,0.3,1.5,0.6c0.3,0.3,0.6,0.8,0.7,1.4l-1.4,0.2c-0.1-0.5-0.3-0.8-0.7-0.9v2.2c0.9,0.3,1.6,0.6,1.9,1
			c0.3,0.4,0.5,0.9,0.5,1.5C33.1,22.9,32.9,23.5,32.5,24z"/>
		<path class="st5" d="M30.7,19.8v-2.2c0.4,0.1,0.6,0.5,0.7,0.9l1.4-0.2c-0.1-0.6-0.3-1-0.7-1.4c-0.4-0.3-0.9-0.5-1.5-0.6v-0.6h-0.8
			v0.6c-0.7,0.1-1.2,0.3-1.6,0.7c-0.4,0.4-0.6,0.9-0.6,1.6c0,0.6,0.2,1.1,0.5,1.6c0.4,0.4,0.9,0.8,1.6,1v2.4
			c-0.2-0.1-0.4-0.3-0.6-0.5c-0.2-0.2-0.3-0.5-0.3-0.8l-1.5,0.2c0.1,0.7,0.4,1.3,0.8,1.7c0.4,0.4,1,0.7,1.6,0.7v1h0.8v-1
			c0.8-0.1,1.3-0.4,1.8-0.9c0.4-0.5,0.6-1,0.6-1.7c0-0.6-0.2-1.1-0.5-1.5C32.3,20.3,31.7,20,30.7,19.8z M29.9,19.5
			c-0.3-0.1-0.4-0.3-0.5-0.4c-0.1-0.2-0.2-0.4-0.2-0.6c0-0.2,0.1-0.4,0.2-0.6c0.1-0.2,0.3-0.3,0.5-0.4V19.5z M31.4,23.2
			c-0.2,0.2-0.4,0.4-0.7,0.4v-2.2c0.4,0.1,0.6,0.2,0.8,0.4c0.1,0.2,0.2,0.4,0.2,0.7C31.7,22.7,31.6,23,31.4,23.2z"/>
	</g>
</g>
</svg>
