<?xml version="1.0" encoding="utf-8"?>
<!-- Generator: Adobe Illustrator 21.0.0, SVG Export Plug-In . SVG Version: 6.00 Build 0)  -->
<svg version="1.1" id="Layer_1" xmlns="http://www.w3.org/2000/svg" xmlns:xlink="http://www.w3.org/1999/xlink" x="0px" y="0px"
	 viewBox="0 0 23 20.3" style="enable-background:new 0 0 23 20.3;" xml:space="preserve">
<style type="text/css">
	.st0{fill:none;}
	.st1{fill:#FEFEFE;}
	.st2{fill:#3498DB;}
	.st3{fill:#2ECC71;}
	.st4{fill:#27AE60;}
	.st5{fill:#2980B9;}
	.st6{fill:#FFA800;}
	.st7{fill:#FFCD02;}
</style>
<g>
	<path class="st0" d="M19.3,14.7c-0.5,0-1,0.2-1.4,0.6c-0.4,0.3-0.6,0.8-0.6,1.4c0,0.5,0.2,1,0.6,1.4c0.3,0.3,0.8,0.6,1.4,0.6
		c0.5,0,1-0.2,1.4-0.6c0.4-0.4,0.6-0.8,0.6-1.4c0-0.5-0.2-1-0.6-1.4C20.3,14.9,19.8,14.7,19.3,14.7z"/>
	<path class="st0" d="M3.8,14.7c-0.5,0-1,0.2-1.4,0.6c-0.3,0.3-0.6,0.8-0.6,1.4c0,0.5,0.2,1,0.6,1.4c0.4,0.3,0.8,0.6,1.4,0.6
		c0.5,0,1-0.2,1.4-0.6c0.3-0.4,0.6-0.8,0.6-1.4c0-0.5-0.2-1-0.6-1.4C4.8,14.9,4.3,14.7,3.8,14.7z"/>
	<polygon class="st0" points="16,16.9 16,16.9 16,16.9 	"/>
	<path class="st0" d="M19.3,14.7c-0.5,0-1,0.2-1.4,0.6c-0.4,0.3-0.6,0.8-0.6,1.4c0,0.5,0.2,1,0.6,1.4c0.3,0.3,0.8,0.6,1.4,0.6
		c0.5,0,1-0.2,1.4-0.6c0.4-0.4,0.6-0.8,0.6-1.4c0-0.5-0.2-1-0.6-1.4C20.3,14.9,19.8,14.7,19.3,14.7z"/>
	<path class="st1" d="M16,16.9L16,16.9C16,16.9,16,16.9,16,16.9c0-0.1,0-0.2,0-0.3c0-0.2,0-0.4,0.1-0.6c0-0.2,0.1-0.5,0.2-0.7
		c0,0,0,0,0,0H6.8c0,0,0,0,0,0h0C6.9,15.6,6.9,15.8,7,16C7,16.2,7,16.4,7,16.6c0,0.1,0,0.2,0,0.3C7,17,7,17.2,6.9,17.4
		c0,0.1,0,0.1-0.1,0.2h9.3C16.1,17.4,16,17.1,16,16.9C16,16.9,16,16.9,16,16.9z"/>
	<path class="st0" d="M3.8,14.7c-0.5,0-1,0.2-1.4,0.6c-0.3,0.3-0.6,0.8-0.6,1.4c0,0.5,0.2,1,0.6,1.4c0.4,0.3,0.8,0.6,1.4,0.6
		c0.5,0,1-0.2,1.4-0.6c0.3-0.4,0.6-0.8,0.6-1.4c0-0.5-0.2-1-0.6-1.4C4.8,14.9,4.3,14.7,3.8,14.7z"/>
	<path class="st0" d="M4.8,13.5c-0.1,0-0.2-0.1-0.3-0.1C4.7,13.5,4.8,13.5,4.8,13.5L4.8,13.5z"/>
	<path class="st0" d="M12.3,2c-0.5-0.2-1-0.2-1.5-0.1c-0.5,0.2-0.9,0.5-1.1,1c-0.2,0.5-0.2,1-0.1,1.5c0.2,0.5,0.5,0.9,1,1.1
		c0.5,0.2,1,0.2,1.5,0.1c0.5-0.2,0.9-0.5,1.1-1c0.2-0.5,0.2-1,0.1-1.5C13.2,2.6,12.8,2.2,12.3,2z"/>
	<path class="st1" d="M10.3,6.7C10,6.6,9.8,6.4,9.5,6.3C9.5,6.2,9.4,6.1,9.3,6.1c0,0-0.1,0-0.1-0.1C9.1,5.9,9.1,5.9,9,5.8l-4.4,7.7
		c0.1,0,0.2,0.1,0.3,0.1l0,0c0.1,0,0.1,0,0.2,0.1c0.1,0,0.2,0.1,0.2,0.1C5.5,13.8,5.8,14,6,14.2c0,0,0.1,0.1,0.1,0.1
		c0.1,0.2,0.3,0.3,0.4,0.5L11,6.9C10.8,6.9,10.5,6.8,10.3,6.7C10.3,6.7,10.3,6.7,10.3,6.7z"/>
	<path class="st2" d="M14.5,2.5c-0.2-0.4-0.4-0.8-0.7-1.1c-0.3-0.3-0.6-0.5-1.1-0.7c-0.4-0.2-0.8-0.2-1.3-0.2
		c-0.4,0-0.9,0.1-1.2,0.2C9.9,0.9,9.5,1.1,9.2,1.4C8.9,1.7,8.7,2.1,8.5,2.5C8.4,2.9,8.3,3.3,8.3,3.7c0,0.4,0.1,0.9,0.3,1.2
		C8.6,5.3,8.8,5.5,9,5.8C9.1,5.9,9.1,5.9,9.2,6c0,0,0.1,0,0.1,0.1c0.1,0.1,0.2,0.1,0.2,0.2c0.2,0.2,0.5,0.3,0.7,0.4c0,0,0,0,0,0
		c0.2,0.1,0.5,0.2,0.7,0.2c0.2,0,0.3,0,0.5,0c0.2,0,0.3,0,0.5,0c0.3,0,0.5-0.1,0.7-0.2c0,0,0,0,0,0c0.3-0.1,0.5-0.3,0.7-0.4
		c0.1-0.1,0.2-0.1,0.2-0.2c0,0,0.1,0,0.1-0.1C13.9,5.9,14,5.8,14,5.8c0.2-0.2,0.4-0.5,0.5-0.8c0.2-0.4,0.2-0.8,0.2-1.2
		C14.8,3.3,14.7,2.9,14.5,2.5z M13.3,4.5c-0.2,0.5-0.6,0.8-1.1,1c-0.5,0.2-1,0.1-1.5-0.1c-0.5-0.2-0.8-0.6-1-1.1
		c-0.2-0.5-0.1-1,0.1-1.5c0.2-0.5,0.6-0.8,1.1-1c0.5-0.2,1-0.2,1.5,0.1c0.5,0.2,0.8,0.6,1,1.1C13.5,3.5,13.5,4.1,13.3,4.5z"/>
	<path class="st3" d="M6,14.2c-0.2-0.2-0.4-0.3-0.7-0.5c-0.1,0-0.2-0.1-0.2-0.1c-0.1,0-0.1,0-0.2-0.1c-0.1,0-0.2-0.1-0.3-0.1
		c-0.3-0.1-0.5-0.1-0.8-0.1c-0.4,0-0.9,0.1-1.2,0.2c-0.4,0.2-0.8,0.4-1.1,0.7c-0.3,0.3-0.5,0.6-0.7,1.1c-0.2,0.4-0.3,0.8-0.3,1.3
		s0.1,0.9,0.3,1.2c0.2,0.4,0.4,0.8,0.7,1.1c0.3,0.3,0.7,0.5,1.1,0.7c0.4,0.2,0.8,0.3,1.2,0.3s0.9-0.1,1.2-0.3
		c0.4-0.2,0.8-0.4,1.1-0.7c0.3-0.3,0.5-0.6,0.7-1.1c0-0.1,0.1-0.1,0.1-0.2c0-0.1,0-0.1,0.1-0.2C7,17.2,7,17,7,16.9
		c0-0.1,0-0.2,0-0.3C7,16.4,7,16.2,7,16c0-0.2-0.1-0.5-0.2-0.7h0c0,0,0,0,0,0c-0.1-0.2-0.2-0.4-0.3-0.5c-0.1-0.2-0.2-0.3-0.4-0.5
		C6,14.2,6,14.2,6,14.2z M5.1,18c-0.3,0.3-0.8,0.6-1.4,0.6c-0.5,0-1-0.2-1.4-0.6c-0.3-0.4-0.6-0.8-0.6-1.4c0-0.5,0.2-1,0.6-1.4
		c0.4-0.3,0.8-0.6,1.4-0.6c0.5,0,1,0.2,1.4,0.6c0.3,0.3,0.6,0.8,0.6,1.4C5.7,17.1,5.5,17.6,5.1,18z"/>
	<path class="st4" d="M3.8,14.7c-0.5,0-1,0.2-1.4,0.6c-0.3,0.3-0.6,0.8-0.6,1.4c0,0.5,0.2,1,0.6,1.4c0.4,0.3,0.8,0.6,1.4,0.6
		c0.5,0,1-0.2,1.4-0.6c0.3-0.4,0.6-0.8,0.6-1.4c0-0.5-0.2-1-0.6-1.4C4.8,14.9,4.3,14.7,3.8,14.7z M3.8,17.7c-0.6,0-1.1-0.5-1.1-1.1
		c0-0.6,0.5-1.1,1.1-1.1s1.1,0.5,1.1,1.1C4.9,17.2,4.4,17.7,3.8,17.7z"/>
	<path class="st1" d="M3.8,15.5c-0.6,0-1.1,0.5-1.1,1.1c0,0.6,0.5,1.1,1.1,1.1s1.1-0.5,1.1-1.1C4.9,16,4.4,15.5,3.8,15.5z"/>
	<path class="st0" d="M13.3,3.1c-0.2-0.5-0.5-0.9-1-1.1c-0.5-0.2-1-0.2-1.5-0.1c-0.5,0.2-0.9,0.5-1.1,1c-0.2,0.5-0.2,1-0.1,1.5
		c0.2,0.5,0.5,0.9,1,1.1c0.5,0.2,1,0.2,1.5,0.1c0.5-0.2,0.9-0.5,1.1-1C13.5,4.1,13.5,3.5,13.3,3.1z"/>
	<path class="st0" d="M12.3,2c-0.5-0.2-1-0.2-1.5-0.1c-0.5,0.2-0.9,0.5-1.1,1c-0.2,0.5-0.2,1-0.1,1.5c0.2,0.5,0.5,0.9,1,1.1
		c0.5,0.2,1,0.2,1.5,0.1c0.5-0.2,0.9-0.5,1.1-1c0.2-0.5,0.2-1,0.1-1.5C13.2,2.6,12.8,2.2,12.3,2z"/>
	<path class="st5" d="M12.3,2c-0.5-0.2-1-0.2-1.5-0.1c-0.5,0.2-0.9,0.5-1.1,1c-0.2,0.5-0.2,1-0.1,1.5c0.2,0.5,0.5,0.9,1,1.1
		c0.5,0.2,1,0.2,1.5,0.1c0.5-0.2,0.9-0.5,1.1-1c0.2-0.5,0.2-1,0.1-1.5C13.2,2.6,12.8,2.2,12.3,2z M11.5,4.8c-0.6,0-1.1-0.5-1.1-1.1
		c0-0.6,0.5-1.1,1.1-1.1c0.6,0,1.1,0.5,1.1,1.1C12.6,4.3,12.1,4.8,11.5,4.8z"/>
	<path class="st1" d="M11.5,2.6c-0.6,0-1.1,0.5-1.1,1.1c0,0.6,0.5,1.1,1.1,1.1c0.6,0,1.1-0.5,1.1-1.1C12.6,3.1,12.1,2.6,11.5,2.6z"
		/>
	<path class="st6" d="M19.3,14.7c-0.5,0-1,0.2-1.4,0.6c-0.4,0.3-0.6,0.8-0.6,1.4c0,0.5,0.2,1,0.6,1.4c0.3,0.3,0.8,0.6,1.4,0.6
		c0.5,0,1-0.2,1.4-0.6c0.4-0.4,0.6-0.8,0.6-1.4c0-0.5-0.2-1-0.6-1.4C20.3,14.9,19.8,14.7,19.3,14.7z M19.3,17.7
		c-0.6,0-1.1-0.5-1.1-1.1c0-0.6,0.5-1.1,1.1-1.1c0.6,0,1.1,0.5,1.1,1.1C20.4,17.2,19.9,17.7,19.3,17.7z"/>
	<path class="st1" d="M19.3,15.5c-0.6,0-1.1,0.5-1.1,1.1c0,0.6,0.5,1.1,1.1,1.1c0.6,0,1.1-0.5,1.1-1.1C20.4,16,19.9,15.5,19.3,15.5z
		"/>
	<path class="st0" d="M13.7,6.1C13.8,6.1,13.8,6,13.7,6.1C13.8,6,13.8,6.1,13.7,6.1L13.7,6.1z"/>
	<path class="st0" d="M13.3,4.5c0.2-0.5,0.2-1,0.1-1.5c-0.2-0.5-0.5-0.9-1-1.1c-0.5-0.2-1-0.2-1.5-0.1c-0.5,0.2-0.9,0.5-1.1,1
		c-0.2,0.5-0.2,1-0.1,1.5c0.2,0.5,0.5,0.9,1,1.1c0.5,0.2,1,0.2,1.5,0.1C12.6,5.4,13,5,13.3,4.5z"/>
	<path class="st0" d="M19.3,14.7c-0.5,0-1,0.2-1.4,0.6c-0.4,0.3-0.6,0.8-0.6,1.4c0,0.5,0.2,1,0.6,1.4c0.3,0.3,0.8,0.6,1.4,0.6
		c0.5,0,1-0.2,1.4-0.6c0.4-0.4,0.6-0.8,0.6-1.4c0-0.5-0.2-1-0.6-1.4C20.3,14.9,19.8,14.7,19.3,14.7z"/>
	<path class="st1" d="M17.1,14.2c0.2-0.2,0.4-0.3,0.7-0.5c0.1,0,0.2-0.1,0.2-0.1c0.1,0,0.1,0,0.2-0.1c0.1,0,0.2-0.1,0.3-0.1L14,5.8
		C14,5.8,13.9,5.9,13.8,6c0,0-0.1,0-0.1,0.1l0,0c-0.1,0.1-0.2,0.1-0.2,0.2c-0.2,0.2-0.5,0.3-0.7,0.4c0,0,0,0,0,0
		c-0.2,0.1-0.5,0.2-0.7,0.2l4.5,7.8c0.1-0.2,0.2-0.3,0.4-0.5C17,14.2,17,14.2,17.1,14.2z"/>
	<path class="st7" d="M22.3,15.3c-0.2-0.4-0.4-0.8-0.7-1.1c-0.3-0.3-0.6-0.5-1.1-0.7c-0.4-0.2-0.8-0.2-1.3-0.2c-0.3,0-0.5,0-0.8,0.1
		c-0.1,0-0.2,0.1-0.3,0.1c-0.1,0-0.1,0-0.2,0.1c-0.1,0-0.2,0.1-0.2,0.1c-0.3,0.1-0.5,0.3-0.7,0.5c0,0-0.1,0.1-0.1,0.1
		c-0.1,0.1-0.3,0.3-0.4,0.5c-0.1,0.2-0.2,0.3-0.3,0.5c0,0,0,0,0,0c-0.1,0.2-0.2,0.5-0.2,0.7c0,0.2-0.1,0.4-0.1,0.6
		c0,0.1,0,0.2,0,0.3c0,0,0,0,0,0c0,0,0,0,0,0c0,0.2,0.1,0.5,0.2,0.7c0,0.1,0,0.1,0.1,0.2c0.2,0.4,0.4,0.8,0.7,1.1
		c0.3,0.3,0.6,0.5,1.1,0.7c0.4,0.2,0.8,0.3,1.2,0.3c0.4,0,0.9-0.1,1.3-0.3c0.4-0.2,0.8-0.4,1.1-0.7c0.3-0.3,0.5-0.6,0.7-1.1
		c0.2-0.4,0.2-0.8,0.2-1.2S22.4,15.7,22.3,15.3z M20.6,18c-0.3,0.3-0.8,0.6-1.4,0.6c-0.5,0-1-0.2-1.4-0.6c-0.4-0.4-0.6-0.8-0.6-1.4
		c0-0.5,0.2-1,0.6-1.4c0.3-0.3,0.8-0.6,1.4-0.6c0.5,0,1,0.2,1.4,0.6c0.4,0.3,0.6,0.8,0.6,1.4C21.2,17.1,21,17.6,20.6,18z"/>
	<path class="st1" d="M19.3,15.5c-0.6,0-1.1,0.5-1.1,1.1c0,0.6,0.5,1.1,1.1,1.1s1.1-0.5,1.1-1.1C20.4,16,19.9,15.5,19.3,15.5z"/>
</g>
</svg>
