<?xml version="1.0" encoding="utf-8"?>
<!-- Generator: Adobe Illustrator 21.0.0, SVG Export Plug-In . SVG Version: 6.00 Build 0)  -->
<svg version="1.1" id="Layer_1" xmlns="http://www.w3.org/2000/svg" xmlns:xlink="http://www.w3.org/1999/xlink" x="0px" y="0px"
	 viewBox="0 0 44 44" style="enable-background:new 0 0 44 44;" xml:space="preserve">
<style type="text/css">
	.st0{fill:#EE7B5F;}
	.st1{clip-path:url(#Ellipse_1_copy_2_);fill:#FFFFFF;}
	.st2{fill:#31B978;}
	.st3{fill:#FFFFFF;}
	.st4{fill:#55A8FD;}
	.st5{fill:#FAB12D;}
</style>
<g>
	<circle id="Ellipse_1_copy_1_" class="st0" cx="22" cy="-63" r="22"/>
	<g>
		<defs>
			<circle id="Ellipse_1_copy" cx="22" cy="-63" r="22"/>
		</defs>
		<clipPath id="Ellipse_1_copy_2_">
			<use xlink:href="#Ellipse_1_copy"  style="overflow:visible;"/>
		</clipPath>
		<path class="st1" d="M22.5-72c4.4-0.1,7.9,3.4,8,7.8c0.1,4.4-3.4,7.9-7.8,8c-4.4,0.1-7.9-3.4-8-7.8c0,0,0-0.1,0-0.1
			C14.7-68.4,18.2-72,22.5-72C22.5-72,22.5-72,22.5-72z M38-42.4c-6.9,8.6-19.4,9.9-27.9,3.1c-1.1-0.9-2.2-1.9-3.1-3.1
			c3.2-8.6,12.7-12.9,21.3-9.7C32.8-50.5,36.3-46.9,38-42.4z"/>
	</g>
</g>
<g>
	<circle id="Ellipse_1_copy_4" class="st2" cx="22" cy="22" r="22"/>
	<path class="st3" d="M22,36l-1.8-1.8c-6.8-6-11.2-10-11.2-15c-0.1-3.9,3-7.1,6.9-7.2c0.1,0,0.1,0,0.2,0c2.3,0,4.4,1,5.9,2.7
		c1.5-1.7,3.6-2.7,5.9-2.7c3.9-0.1,7.1,3.1,7.2,7c0,0.1,0,0.1,0,0.2c0,5-4.4,9-11.2,15L22,36z"/>
</g>
<g>
	<circle id="Ellipse_1_copy_3" class="st4" cx="-88" cy="22" r="22"/>
	<path class="st3" d="M-97.9,12.1C-95.3,9.5-91.7,8-88,8c2.6,0,5.2,0.7,7.4,2.1l0,0c0.1,0.1,0.3,0.2,0.4,0.3h0l0.1,0.1h0l0.1,0.1
		l0,0l0.1,0.1l0,0l0,0l0,0l0.1,0l0.2,0.1v0h0l0.1,0.1l0,0l0.1,0l0.1,0.1v0h0l0.1,0.1l0.1,0l0,0l0,0l0,0l0,0l0,0l0,0l0.1,0.1l0,0l0,0
		l0,0l0.1,0.1l0,0l0,0l0,0l0,0l0.1,0l0,0l0,0l0,0l0,0l0,0l0.1,0.1l0,0l0,0l0,0l0,0l0,0l0,0l0,0l-2.7,2.7l0,0l-5.3,5.3l5.6,5.6
		c-0.4,0.8-1,1.5-1.6,2.2c-0.1,0.1-0.2,0.2-0.3,0.3l-5.9-5.9l-5.3,5.3c-0.8-0.8-1.4-1.6-1.9-2.6l12.1-12.2L-83,13l-0.3-0.2
		c-5-2.5-11.1-0.6-13.7,4.5s-0.6,11.1,4.5,13.7s11.1,0.6,13.7-4.5c1.5-2.9,1.5-6.3,0-9.2l2.8-2.8c1.4,2.2,2.1,4.8,2.1,7.4
		c0,7.7-6.3,14-14,14c-7.7,0-14-6.3-14-14C-102,18.3-100.5,14.7-97.9,12.1L-97.9,12.1L-97.9,12.1z"/>
</g>
<g>
	<circle id="Ellipse_1_copy_2" class="st5" cx="-88" cy="-63" r="22"/>
	<path class="st3" d="M-96-74.2c5.9-4.3,14.1-3.5,19.1,1.9c2.3,2.5,3.7,5.8,3.9,9.2v1.5c-0.2,3.2-1.4,6.2-3.4,8.6
		c-3.2-0.9-6.5-1.3-9.8-1.4c-4.2-0.1-8.4,0.3-12.4,1.4c-2-2.4-3.2-5.3-3.4-8.4v-1.9C-101.7-67.7-99.5-71.7-96-74.2z M-87.8-65
		c-0.7,0.1-1.3,0.4-1.9,0.7c-1.9,1.2-2.4,3.7-1.1,5.6c1.2,1.9,3.7,2.4,5.6,1.1c1.3-0.8,1.9-2.3,1.8-3.8c1.3-3,2.6-6,3.9-9
		c-0.1-0.1-0.2-0.2-0.3-0.3C-82.6-68.8-85.2-66.9-87.8-65z M-88.2-62.7c1-0.4,2,0.1,2.4,1.1s-0.1,2-1.1,2.4c-1,0.4-2-0.1-2.4-1.1
		c-0.1-0.3-0.1-0.5-0.1-0.8C-89.3-61.8-88.8-62.4-88.2-62.7z"/>
</g>
</svg>
